<?xml version="1.0" encoding="utf-8"?>
<!-- Generator: Adobe Illustrator 14.0.0, SVG Export Plug-In . SVG Version: 6.00 Build 43363)  -->
<!DOCTYPE svg PUBLIC "-//W3C//DTD SVG 1.1//EN" "http://www.w3.org/Graphics/SVG/1.1/DTD/svg11.dtd">
<svg version="1.1" id="Layer_1" xmlns="http://www.w3.org/2000/svg" xmlns:xlink="http://www.w3.org/1999/xlink" x="0px" y="0px"
	 width="400px" height="400px" viewBox="0 0 400 400" enable-background="new 0 0 400 400" xml:space="preserve">
<g>
	<path fill="#B28F56" d="M102.635,197.862c-14.943-9.773-33.687-6.793-45.631,5.736c-3.924,4.114-6.852,9.071-8.299,14.413
		c-2.294,8.487-0.937,17.933,5.92,26.613c4.344,5.494,10.51,8.709,16.967,9.462c6.457,0.76,13.204-0.944,18.705-5.291
		c2.76-2.175,4.815-4.916,6.14-7.937c1.376-3.129,1.958-6.548,1.706-9.931c-0.316-4.337-1.914-8.455-4.647-11.492
		c-3.956-4.392-10.374-6.205-15.971-4.272c-4.996,1.732-8.338,6.092-8.325,11.56c0,2.32,0.64,4.67,1.854,6.706
		c2.023,3.371,6.146,6.024,10.083,5.562c1.557-0.188,3.063-0.876,4.259-2.075c2.825-2.825,2.825-7.411,0-10.238
		c-2.824-2.831-7.413-2.831-10.237,0c-0.382,0.372-0.705,0.783-0.983,1.212c-0.058-0.395-0.091-0.788-0.091-1.183
		c0-3.364,2.017-5.869,5.055-6.922c3.742-1.292,8.112,0.036,10.717,2.935c1.997,2.21,3.167,5.284,3.406,8.564
		c0.188,2.595-0.252,5.216-1.299,7.601c-1.008,2.301-2.592,4.402-4.711,6.079c-4.44,3.51-9.876,4.88-15.092,4.279
		c-5.196-0.614-10.18-3.222-13.702-7.669c-5.772-7.307-6.935-15.205-5.022-22.27c1.241-4.562,3.743-8.802,7.11-12.332
		c10.322-10.82,26.468-13.48,39.407-5.019c7.627,4.986,13.444,13.246,15.758,22.922c2.087,8.739,1.312,18.65-3.574,28.368
		c-2.702,5.371-6.555,10.351-11.021,15.127c-5.688,6.073-12.067,11.618-18.337,17.083c-10.787,9.398-25.233,21.985-30.281,36.36
		c-1.907,5.452-1.835,11.343,0.052,16.498c1.836,4.996,5.372,9.317,10.471,11.938c3.263,1.671,6.967,2.42,10.8,1.926
		c3.452-0.449,7.006-1.897,10.4-4.585c3.652-2.886,5.791-6.987,6.295-11.292c0.51-4.295-0.627-8.791-3.523-12.449
		c-1.868-2.359-4.35-3.958-7.045-4.747c-2.068-0.604-4.272-0.73-6.412-0.349c-0.575,0.048-1.144,0.191-1.693,0.407l-0.427,0.139
		l0.02,0.051c-0.543,0.271-1.041,0.627-1.493,1.073c-0.698,0.705-1.177,1.542-1.441,2.43c-0.588,1.971-0.11,4.208,1.441,5.765
		c2.269,2.266,5.939,2.266,8.195,0c1.203-1.192,1.771-2.786,1.7-4.353c1.26,0.585,2.398,1.467,3.322,2.631
		c2.056,2.602,2.864,5.788,2.508,8.832c-0.361,3.051-1.887,5.966-4.492,8.027c-2.663,2.101-5.377,3.229-7.975,3.568
		c-2.818,0.365-5.54-0.19-7.943-1.428c-3.943-2.02-6.69-5.384-8.119-9.275c-1.505-4.121-1.558-8.826-0.032-13.182
		c4.615-13.146,18.518-25.259,28.898-34.298c6.412-5.591,12.869-11.217,18.679-17.422c4.776-5.116,8.913-10.468,11.828-16.265
		c5.448-10.83,6.308-21.918,3.949-31.732C117.856,212.835,111.283,203.515,102.635,197.862z"/>
	<path fill="#B28F56" d="M51.908,51.91c-0.227,0.227-0.385,0.493-0.473,0.788s-0.103,0.62-0.044,0.963
		c0.461,2.783,0.687,4.937,1.324,7.381c0.637,2.445,1.686,5.18,3.795,9.126c-0.973,0.836-1.947,1.826-2.887,2.954
		c-0.939,1.128-1.846,2.396-2.685,3.787c-0.24,0.396-0.33,0.852-0.275,1.308c0.055,0.456,0.255,0.912,0.595,1.307
		c0.338,0.397,0.763,0.672,1.213,0.805c0.45,0.134,0.925,0.127,1.364-0.038c3.318-1.229,6.796-2.116,10.366-2.64
		c2.256-0.331,4.551-0.5,6.864-0.536c2.972,5.385,5.176,11.611,5.088,16.832c-0.006,0.734,0.259,1.37,0.808,1.862
		c0.543,0.491,1.203,0.704,1.926,0.614c8.099-0.943,15.622,1.558,19.965,5.904l11.944,11.944l-3.161,3.17
		c-0.736-0.637-1.5-1.228-2.288-1.791c-7.518-5.323-15.861-7.264-23.772-6.486c-5.106,0.501-10.012,2.126-14.407,4.692
		c-4.382,2.562-8.253,6.079-11.291,10.36c-4.945,6.987-7.653,16.014-6.645,26.284c0.64,6.554,2.766,12.481,5.991,17.6
		c3.4,5.42,8.041,9.935,13.451,13.36c16.533,10.47,33.079,6.754,48.733,3.234c3.853-0.862,8.875-2.013,13.683-2.766
		c7.058-1.108,13.786-1.506,20.276,2.143c2.462,1.39,4.518,3.309,5.616,5.785c0.549,1.257,0.847,2.66,0.795,4.191
		c-0.045,1.503-0.414,3.154-1.157,4.951c-0.885,2.139-2.572,3.723-4.556,4.547c-1.991,0.817-4.292,0.879-6.438-0.013
		c-1.59-0.663-2.767-1.907-3.368-3.38c-0.536-1.292-0.64-2.773-0.207-4.188c0.278,0.597,0.666,1.157,1.157,1.654
		c2.262,2.262,5.939,2.262,8.196,0c2.262-2.262,2.262-5.934,0-8.192c-1.203-1.205-2.799-1.768-4.376-1.694
		c-1.447-0.093-2.882,0.152-4.201,0.695c-2.204,0.911-4.078,2.679-5.081,5.074c-1.176,2.84-1.098,5.891-0.006,8.519
		c1.086,2.627,3.18,4.848,6.018,6.024c3.38,1.409,7.025,1.315,10.167,0.016c3.148-1.296,5.805-3.797,7.207-7.19
		c0.982-2.359,1.467-4.592,1.531-6.673c0.078-2.317-0.362-4.428-1.202-6.318c-1.545-3.529-4.37-6.189-7.705-8.067
		c-8.157-4.602-16.546-3.936-25.401-2.388c-4.252,0.736-8.505,1.7-12.028,2.495c-14.691,3.303-30.223,6.786-45.037-2.586
		c-4.802-3.044-8.913-7.051-11.925-11.847c-2.837-4.499-4.705-9.705-5.274-15.458c-0.879-9.013,1.468-16.905,5.779-22.983
		c2.624-3.697,5.979-6.735,9.786-8.968c3.788-2.214,8.014-3.617,12.384-4.046c6.799-0.669,13.987,1.011,20.476,5.613
		c0.569,0.401,1.119,0.818,1.642,1.264l-2.534,2.54c-0.957,0.957-0.957,2.511,0,3.474c0.957,0.951,2.508,0.951,3.464-0.006
		l2.546-2.54c0.97,1.157,1.835,2.404,2.604,3.723c4.751,8.215,5.042,18.55-1.247,26.157c-6.289,7.584-17.995,10.47-26.016,3.839
		c-3.199-2.657-5.384-6.528-5.817-10.991c-0.162-1.762,0.038-3.458,0.536-5.013c0.53-1.628,1.39-3.122,2.495-4.389
		c1.041-1.183,2.301-2.178,3.723-2.908c3.529-1.8,7.737-1.913,11.014,0.476c-1.28,0.3-2.489,0.943-3.478,1.933
		c-2.832,2.827-2.832,7.417,0,10.247c2.831,2.828,7.42,2.828,10.244,0c2.185-2.188,2.463-5.142,1.7-7.988
		c-0.814-2.983-2.767-5.853-4.886-7.602c-4.867-4.039-11.376-4.21-16.824-1.421c-1.972,1.015-3.716,2.384-5.165,4.03
		c-1.544,1.765-2.734,3.845-3.471,6.118c-0.711,2.197-0.989,4.562-0.769,6.977c0.549,5.804,3.4,10.839,7.562,14.284
		c10.134,8.393,24.877,5.245,32.911-4.466c7.646-9.239,7.504-21.727,1.706-31.738c-0.97-1.687-2.094-3.274-3.354-4.735l3.167-3.17
		l52.114,52.124c-1.797,3.3-1.312,7.517,1.486,10.312c2.883,2.879,7.278,3.312,10.62,1.306c4.583,6.279,5.5,11.13,4.99,19.206
		c-0.019,0.449,0.11,0.847,0.42,1.183c0.297,0.339,0.692,0.513,1.138,0.526c14.543,0.481,29.008,13.941,36.143,21.077
		c0.64,0.633,1.655,0.633,2.288,0.006v-0.006c0.633-0.627,0.627-1.652,0-2.282c-7.135-7.142-20.592-21.601-21.083-36.143
		c-0.013-0.453-0.188-0.837-0.517-1.141c-0.343-0.307-0.737-0.446-1.189-0.417c-8.073,0.511-12.927-0.407-19.203-5
		c2.003-3.338,1.564-7.733-1.312-10.616c-2.792-2.789-7.013-3.284-10.31-1.487l-52.121-52.114l3.161-3.164
		c1.467,1.253,3.057,2.381,4.744,3.354c10.012,5.801,22.499,5.943,31.742-1.706c9.708-8.038,12.855-22.784,4.459-32.909
		c-3.445-4.169-8.474-7.019-14.284-7.562c-2.417-0.23-4.783,0.055-6.974,0.769c-2.269,0.733-4.356,1.926-6.121,3.474
		c-1.648,1.438-3.012,3.183-4.02,5.16c-2.799,5.449-2.631,11.945,1.415,16.824c1.745,2.111,4.622,4.072,7.608,4.874
		c2.843,0.776,5.785,0.494,7.982-1.69c2.825-2.831,2.825-7.417,0-10.247c-2.831-2.825-7.414-2.825-10.251,0
		c-0.989,0.995-1.635,2.207-1.926,3.477c-2.392-3.267-2.288-7.491-0.479-11.007c0.73-1.429,1.726-2.689,2.902-3.723
		c1.273-1.115,2.766-1.968,4.395-2.495c1.545-0.501,3.251-0.701,5.01-0.536c4.459,0.419,8.337,2.611,10.987,5.817
		c6.632,8.008,3.755,19.72-3.833,26.005c-7.601,6.292-17.942,6.008-26.157,1.25c-1.318-0.763-2.566-1.635-3.723-2.604l2.546-2.541
		c0.957-0.956,0.957-2.514,0-3.467c-0.963-0.96-2.521-0.963-3.477-0.003l-2.534,2.541c-0.452-0.53-0.866-1.08-1.267-1.642
		c-4.602-6.499-6.282-13.683-5.61-20.479c0.426-4.366,1.823-8.6,4.039-12.394c2.23-3.8,5.274-7.154,8.979-9.775
		c6.075-4.312,13.96-6.658,22.977-5.775c5.746,0.566,10.955,2.43,15.447,5.261c4.802,3.019,8.816,7.133,11.848,11.935
		c9.384,14.811,5.895,30.342,2.598,45.033c-0.801,3.526-1.758,7.773-2.508,12.029c-1.538,8.854-2.204,17.245,2.398,25.404
		c1.875,3.338,4.544,6.16,8.066,7.71c1.894,0.834,4.001,1.268,6.315,1.193c2.075-0.058,4.312-0.543,6.677-1.525
		c3.387-1.416,5.888-4.066,7.187-7.204c1.299-3.145,1.402-6.793-0.006-10.18c-1.189-2.834-3.407-4.928-6.031-6.014
		c-2.637-1.089-5.682-1.17-8.512,0.01c-2.398,0.992-4.163,2.87-5.081,5.083c-0.542,1.315-0.788,2.753-0.691,4.198
		c-0.078,1.577,0.491,3.177,1.687,4.373c2.269,2.265,5.927,2.265,8.196,0c2.262-2.262,2.255-5.928,0-8.19
		c-0.498-0.494-1.061-0.885-1.655-1.157c1.416-0.436,2.889-0.335,4.188,0.197c1.479,0.611,2.715,1.787,3.374,3.374
		c0.892,2.143,0.84,4.447,0.013,6.435c-0.821,1.984-2.405,3.668-4.544,4.556c-1.797,0.75-3.445,1.112-4.951,1.164
		c-1.525,0.046-2.934-0.246-4.194-0.798c-2.476-1.095-4.389-3.154-5.778-5.626c-3.651-6.482-3.251-13.211-2.146-20.266
		c0.75-4.812,1.9-9.834,2.767-13.69c3.516-15.65,7.239-32.197-3.232-48.73c-3.425-5.404-7.95-10.047-13.367-13.457
		c-5.112-3.219-11.039-5.339-17.599-5.982c-10.257-1.008-19.293,1.69-26.28,6.642c-4.286,3.041-7.795,6.913-10.361,11.291
		c-2.566,4.389-4.195,9.301-4.693,14.401c-0.775,7.917,1.158,16.265,6.49,23.782c0.556,0.788,1.157,1.554,1.784,2.285l-3.161,3.167
		l-11.951-11.951c-4.343-4.34-6.844-11.873-5.895-19.956c0.078-0.73-0.129-1.393-0.62-1.936c-0.491-0.54-1.131-0.814-1.855-0.805
		c-5.226,0.088-11.449-2.116-16.831-5.086c0.036-2.317,0.205-4.617,0.536-6.877c0.523-3.569,1.409-7.046,2.638-10.364
		c0.167-0.441,0.173-0.917,0.04-1.367c-0.134-0.45-0.408-0.875-0.803-1.216c-0.397-0.338-0.854-0.538-1.309-0.593
		c-0.456-0.056-0.91,0.033-1.306,0.273c-1.394,0.841-2.662,1.748-3.791,2.688c-1.128,0.939-2.117,1.912-2.951,2.883
		c-3.946-2.109-6.682-3.158-9.126-3.795c-2.445-0.637-4.599-0.862-7.382-1.324c-0.345-0.057-0.67-0.041-0.965,0.046
		c-0.295,0.087-0.562,0.246-0.79,0.474"/>
	<path fill="#B28F56" d="M350.247,63.017c-2.611-5.103-6.935-8.635-11.938-10.468c-5.151-1.89-11.045-1.955-16.5-0.045
		c-14.375,5.041-26.959,19.493-36.35,30.281c-5.468,6.267-11.014,12.649-17.09,18.33c-4.77,4.466-9.76,8.319-15.13,11.021
		c-9.715,4.889-19.623,5.668-28.368,3.577c-9.669-2.317-17.929-8.134-22.919-15.754c-8.455-12.943-5.798-29.085,5.022-39.417
		c3.522-3.361,7.762-5.865,12.326-7.103c7.07-1.916,14.962-0.753,22.279,5.025c4.44,3.52,7.044,8.497,7.659,13.699
		c0.608,5.206-0.762,10.652-4.272,15.096c-1.68,2.113-3.788,3.697-6.082,4.708c-2.385,1.05-5.003,1.493-7.608,1.299
		c-3.27-0.239-6.346-1.409-8.563-3.403c-2.896-2.604-4.221-6.984-2.921-10.723c1.047-3.031,3.555-5.048,6.916-5.048
		c0.401,0.003,0.789,0.033,1.189,0.087c-0.433,0.275-0.854,0.604-1.222,0.979c-2.824,2.825-2.824,7.417,0,10.241
		c2.825,2.828,7.42,2.828,10.245,0c1.195-1.198,1.887-2.705,2.075-4.269c0.458-3.92-2.198-8.043-5.571-10.07
		c-2.023-1.228-4.382-1.855-6.703-1.861c-5.461-0.007-9.824,3.328-11.55,8.331c-1.939,5.595-0.123,12.012,4.272,15.965
		c3.031,2.734,7.155,4.33,11.485,4.65c3.387,0.249,6.806-0.33,9.934-1.707c3.012-1.328,5.759-3.39,7.937-6.137
		c4.337-5.5,6.05-12.248,5.287-18.708c-0.756-6.457-3.969-12.626-9.463-16.967c-8.687-6.857-18.123-8.222-26.609-5.92
		c-5.338,1.451-10.302,4.372-14.413,8.299c-12.526,11.944-15.512,30.688-5.74,45.631c5.649,8.645,14.976,15.221,25.86,17.832
		c9.812,2.346,20.902,1.49,31.736-3.958c5.797-2.915,11.149-7.045,16.268-11.834c6.198-5.798,11.828-12.264,17.418-18.663
		c9.042-10.387,21.148-24.289,34.294-28.901c4.363-1.529,9.062-1.48,13.186,0.032c3.891,1.429,7.246,4.168,9.275,8.105
		c1.235,2.411,1.784,5.138,1.429,7.947c-0.342,2.601-1.467,5.316-3.574,7.976c-2.056,2.608-4.97,4.137-8.015,4.495
		c-3.043,0.355-6.236-0.449-8.835-2.504c-1.17-0.924-2.049-2.071-2.637-3.325c1.571,0.064,3.154-0.498,4.357-1.69
		c2.261-2.265,2.261-5.933,0-8.195c-1.558-1.561-3.794-2.046-5.772-1.451c-0.885,0.265-1.726,0.75-2.423,1.451
		c-0.439,0.446-0.801,0.95-1.073,1.483l-0.046-0.019l-0.142,0.427c-0.226,0.546-0.355,1.118-0.42,1.693
		c-0.375,2.14-0.245,4.343,0.362,6.412c0.788,2.702,2.385,5.184,4.737,7.048c3.665,2.896,8.157,4.026,12.448,3.525
		c4.305-0.503,8.409-2.646,11.298-6.301c2.688-3.396,4.137-6.941,4.582-10.4C352.67,69.981,351.927,66.277,350.247,63.017z"/>
</g>
</svg>
