<?xml version="1.0" encoding="utf-8"?>
<!-- Generator: Adobe Illustrator 14.0.0, SVG Export Plug-In . SVG Version: 6.00 Build 43363)  -->
<!DOCTYPE svg PUBLIC "-//W3C//DTD SVG 1.1//EN" "http://www.w3.org/Graphics/SVG/1.1/DTD/svg11.dtd">
<svg version="1.1" id="Layer_1" xmlns="http://www.w3.org/2000/svg" xmlns:xlink="http://www.w3.org/1999/xlink" x="0px" y="0px"
	 width="400px" height="400px" viewBox="0 0 400 400" enable-background="new 0 0 400 400" xml:space="preserve">
<g>
	<path fill="#B28F56" d="M297.365,202.137c14.942,9.772,33.687,6.794,45.631-5.735c3.925-4.115,6.852-9.072,8.3-14.414
		c2.295-8.487,0.937-17.933-5.92-26.613c-4.344-5.496-10.51-8.71-16.968-9.463c-6.456-0.76-13.203,0.944-18.704,5.291
		c-2.761,2.175-4.816,4.915-6.141,7.938c-1.376,3.128-1.959,6.547-1.706,9.931c0.317,4.337,1.915,8.454,4.647,11.49
		c3.955,4.393,10.373,6.205,15.972,4.274c4.995-1.732,8.337-6.092,8.324-11.561c-0.001-2.321-0.641-4.67-1.854-6.705
		c-2.023-3.372-6.147-6.026-10.084-5.562c-1.557,0.188-3.064,0.875-4.26,2.074c-2.824,2.826-2.823,7.412,0.002,10.237
		c2.822,2.832,7.412,2.832,10.236,0c0.381-0.371,0.705-0.78,0.982-1.21c0.06,0.394,0.092,0.788,0.092,1.183
		c0,3.364-2.018,5.867-5.055,6.922c-3.743,1.292-8.112-0.036-10.717-2.934c-1.996-2.211-3.167-5.285-3.406-8.563
		c-0.188-2.596,0.252-5.217,1.299-7.602c1.008-2.303,2.592-4.403,4.712-6.081c4.44-3.507,9.876-4.879,15.093-4.278
		c5.195,0.613,10.18,3.223,13.702,7.669c5.771,7.306,6.935,15.204,5.022,22.27c-1.242,4.562-3.743,8.801-7.111,12.331
		c-10.322,10.819-26.467,13.48-39.406,5.019c-7.627-4.986-13.443-13.247-15.758-22.923c-2.087-8.738-1.312-18.649,3.574-28.367
		c2.703-5.37,6.556-10.35,11.02-15.127c5.688-6.072,12.068-11.618,18.338-17.083c10.786-9.398,25.232-21.986,30.281-36.361
		c1.906-5.451,1.834-11.343-0.051-16.496c-1.838-4.998-5.373-9.317-10.472-11.938c-3.266-1.671-6.969-2.421-10.801-1.926
		c-3.45,0.451-7.006,1.897-10.401,4.586c-3.652,2.886-5.789,6.988-6.295,11.291c-0.51,4.294,0.627,8.792,3.523,12.449
		c1.868,2.359,4.352,3.958,7.045,4.748c2.068,0.604,4.272,0.73,6.412,0.349c0.574-0.049,1.145-0.191,1.692-0.408l0.427-0.14
		l-0.02-0.049c0.544-0.274,1.041-0.629,1.494-1.075c0.698-0.705,1.177-1.542,1.441-2.43c0.588-1.971,0.109-4.207-1.441-5.765
		c-2.27-2.265-5.94-2.265-8.196,0c-1.201,1.192-1.771,2.785-1.7,4.353c-1.26-0.585-2.396-1.467-3.32-2.63
		c-2.057-2.601-2.865-5.786-2.508-8.833c0.361-3.05,1.887-5.966,4.492-8.026c2.662-2.103,5.376-3.229,7.973-3.569
		c2.819-0.365,5.541,0.19,7.944,1.428c3.944,2.021,6.69,5.383,8.118,9.276c1.506,4.121,1.559,8.824,0.033,13.181
		c-4.614,13.147-18.518,25.26-28.898,34.299c-6.411,5.59-12.867,11.218-18.678,17.423c-4.777,5.115-8.913,10.466-11.828,16.266
		c-5.449,10.829-6.309,21.917-3.949,31.729C282.146,187.165,288.718,196.485,297.365,202.137z"/>
	<path fill="#B28F56" d="M348.095,348.09c0.225-0.225,0.382-0.494,0.471-0.788c0.087-0.296,0.104-0.621,0.044-0.963
		c-0.462-2.783-0.687-4.938-1.323-7.38c-0.638-2.446-1.687-5.179-3.795-9.127c0.974-0.836,1.945-1.826,2.887-2.955
		c0.939-1.127,1.846-2.395,2.685-3.787c0.239-0.396,0.33-0.851,0.274-1.308c-0.055-0.454-0.255-0.911-0.595-1.306
		c-0.339-0.397-0.764-0.673-1.214-0.804c-0.451-0.135-0.925-0.127-1.364,0.037c-3.317,1.23-6.796,2.116-10.366,2.639
		c-2.256,0.332-4.553,0.5-6.865,0.537c-2.971-5.385-5.174-11.611-5.086-16.833c0.006-0.733-0.259-1.369-0.809-1.861
		c-0.543-0.49-1.202-0.703-1.927-0.614c-8.099,0.945-15.62-1.556-19.965-5.903l-11.944-11.945l3.16-3.17
		c0.737,0.637,1.502,1.228,2.289,1.792c7.517,5.322,15.859,7.264,23.772,6.485c5.106-0.501,10.01-2.127,14.407-4.692
		c4.381-2.563,8.252-6.078,11.29-10.361c4.944-6.986,7.653-16.012,6.644-26.284c-0.639-6.554-2.766-12.479-5.99-17.599
		c-3.4-5.419-8.041-9.934-13.451-13.359c-16.532-10.471-33.078-6.755-48.732-3.234c-3.854,0.86-8.875,2.011-13.685,2.765
		c-7.058,1.108-13.784,1.506-20.274-2.143c-2.463-1.391-4.518-3.308-5.617-5.784c-0.549-1.258-0.846-2.66-0.795-4.192
		c0.045-1.504,0.414-3.154,1.157-4.952c0.886-2.139,2.573-3.722,4.558-4.547c1.99-0.817,4.291-0.879,6.436,0.015
		c1.591,0.663,2.766,1.905,3.368,3.378c0.536,1.293,0.641,2.774,0.206,4.19c-0.277-0.599-0.666-1.158-1.156-1.655
		c-2.262-2.264-5.939-2.261-8.196,0c-2.263,2.262-2.263,5.933-0.001,8.192c1.205,1.205,2.801,1.767,4.377,1.695
		c1.448,0.091,2.883-0.153,4.202-0.696c2.204-0.912,4.078-2.681,5.08-5.075c1.175-2.839,1.099-5.891,0.007-8.519
		c-1.086-2.627-3.181-4.848-6.018-6.023c-3.381-1.411-7.025-1.316-10.167-0.016c-3.149,1.295-5.804,3.797-7.207,7.189
		c-0.982,2.359-1.467,4.593-1.532,6.674c-0.076,2.317,0.362,4.427,1.202,6.317c1.546,3.529,4.37,6.188,7.705,8.067
		c8.156,4.602,16.546,3.937,25.401,2.387c4.253-0.735,8.504-1.699,12.027-2.494c14.691-3.303,30.225-6.785,45.036,2.585
		c4.803,3.043,8.914,7.051,11.927,11.847c2.836,4.499,4.705,9.706,5.273,15.458c0.879,9.013-1.467,16.903-5.777,22.984
		c-2.625,3.694-5.979,6.734-9.785,8.966c-3.789,2.215-8.016,3.618-12.386,4.046c-6.798,0.67-13.986-1.011-20.476-5.612
		c-0.568-0.403-1.117-0.819-1.642-1.263l2.532-2.542c0.957-0.957,0.959-2.511,0.002-3.473c-0.957-0.952-2.508-0.951-3.465,0.004
		l-2.547,2.541c-0.97-1.156-1.834-2.403-2.604-3.722c-4.752-8.215-5.043-18.551,1.246-26.157c6.289-7.585,17.994-10.47,26.016-3.84
		c3.199,2.657,5.385,6.527,5.818,10.991c0.16,1.761-0.039,3.458-0.537,5.012c-0.531,1.628-1.389,3.122-2.496,4.39
		c-1.04,1.181-2.301,2.178-3.723,2.907c-3.529,1.799-7.736,1.913-11.014-0.475c1.279-0.3,2.488-0.945,3.478-1.933
		c2.832-2.827,2.832-7.417,0.001-10.249c-2.831-2.826-7.421-2.828-10.245,0c-2.187,2.188-2.462,5.143-1.7,7.988
		c0.814,2.983,2.768,5.853,4.887,7.602c4.867,4.039,11.376,4.211,16.824,1.422c1.971-1.015,3.715-2.383,5.164-4.03
		c1.545-1.766,2.734-3.845,3.471-6.119c0.711-2.196,0.988-4.562,0.77-6.977c-0.549-5.803-3.401-10.84-7.562-14.284
		c-10.133-8.393-24.878-5.246-32.912,4.468c-7.646,9.238-7.504,21.726-1.705,31.736c0.97,1.688,2.094,3.275,3.354,4.735
		l-3.166,3.171l-52.115-52.124c1.797-3.299,1.312-7.517-1.485-10.313c-2.884-2.878-7.278-3.312-10.619-1.305
		c-4.583-6.279-5.501-11.13-4.991-19.205c0.02-0.45-0.108-0.848-0.42-1.186c-0.297-0.339-0.691-0.512-1.137-0.526
		c-14.544-0.481-29.008-13.94-36.144-21.076c-0.64-0.632-1.655-0.633-2.288-0.007v0.007c-0.633,0.626-0.627,1.65,0,2.281
		c7.136,7.143,20.592,21.601,21.083,36.143c0.013,0.453,0.188,0.838,0.518,1.141c0.343,0.307,0.736,0.446,1.188,0.417
		c8.073-0.511,12.928,0.407,19.203,5.001c-2.004,3.338-1.564,7.732,1.312,10.614c2.792,2.79,7.012,3.283,10.309,1.487l52.12,52.114
		l-3.159,3.163c-1.469-1.252-3.059-2.381-4.746-3.353c-10.01-5.802-22.497-5.944-31.742,1.707
		c-9.707,8.037-12.854,22.783-4.459,32.907c3.445,4.169,8.475,7.019,14.285,7.562c2.416,0.229,4.783-0.054,6.975-0.768
		c2.268-0.734,4.355-1.929,6.12-3.475c1.647-1.438,3.013-3.183,4.021-5.161c2.799-5.449,2.63-11.944-1.416-16.823
		c-1.744-2.111-4.621-4.074-7.607-4.876c-2.844-0.775-5.784-0.494-7.982,1.692c-2.824,2.831-2.824,7.417,0.001,10.246
		c2.831,2.826,7.413,2.827,10.251,0c0.987-0.994,1.635-2.207,1.926-3.476c2.391,3.267,2.287,7.491,0.479,11.007
		c-0.729,1.428-1.727,2.688-2.902,3.722c-1.274,1.114-2.766,1.968-4.395,2.494c-1.546,0.501-3.252,0.701-5.011,0.538
		c-4.459-0.42-8.337-2.611-10.985-5.817c-6.633-8.007-3.757-19.72,3.832-26.007c7.6-6.291,17.941-6.006,26.156-1.249
		c1.318,0.763,2.564,1.634,3.723,2.604l-2.546,2.54c-0.957,0.956-0.957,2.515,0,3.468c0.964,0.961,2.521,0.963,3.478,0.003
		l2.533-2.541c0.453,0.531,0.867,1.081,1.266,1.642c4.603,6.5,6.283,13.686,5.612,20.48c-0.427,4.367-1.825,8.6-4.04,12.395
		c-2.23,3.8-5.274,7.154-8.979,9.775c-6.074,4.312-13.961,6.657-22.978,5.775c-5.745-0.566-10.955-2.432-15.446-5.262
		c-4.803-3.02-8.816-7.133-11.848-11.935c-9.385-14.811-5.895-30.342-2.598-45.033c0.801-3.527,1.758-7.773,2.508-12.029
		c1.537-8.854,2.203-17.245-2.399-25.405c-1.874-3.337-4.544-6.159-8.065-7.71c-1.893-0.834-4.001-1.268-6.315-1.193
		c-2.075,0.059-4.31,0.542-6.677,1.525c-3.387,1.416-5.888,4.065-7.187,7.203c-1.3,3.145-1.402,6.794,0.007,10.181
		c1.189,2.835,3.406,4.926,6.03,6.014c2.636,1.089,5.681,1.169,8.512-0.011c2.398-0.992,4.163-2.868,5.08-5.082
		c0.543-1.315,0.788-2.753,0.691-4.198c0.077-1.578-0.49-3.177-1.687-4.374c-2.269-2.264-5.926-2.264-8.195,0
		c-2.263,2.263-2.255,5.929-0.001,8.191c0.499,0.494,1.062,0.885,1.655,1.156c-1.416,0.435-2.889,0.336-4.188-0.197
		c-1.479-0.609-2.715-1.787-3.374-3.375c-0.893-2.143-0.84-4.446-0.013-6.434c0.821-1.985,2.405-3.668,4.544-4.554
		c1.799-0.75,3.444-1.114,4.951-1.165c1.524-0.047,2.935,0.244,4.195,0.797c2.475,1.095,4.388,3.154,5.777,5.626
		c3.65,6.482,3.25,13.21,2.146,20.266c-0.749,4.812-1.901,9.834-2.767,13.69c-3.516,15.65-7.238,32.198,3.232,48.73
		c3.426,5.404,7.95,10.049,13.366,13.457c5.112,3.219,11.04,5.34,17.599,5.983c10.26,1.007,19.295-1.691,26.281-6.643
		c4.285-3.04,7.795-6.913,10.361-11.291c2.566-4.388,4.194-9.301,4.692-14.401c0.774-7.917-1.157-16.265-6.49-23.781
		c-0.556-0.789-1.157-1.554-1.784-2.285l3.16-3.168l11.953,11.952c4.342,4.339,6.844,11.873,5.894,19.956
		c-0.077,0.73,0.13,1.393,0.62,1.936c0.491,0.539,1.131,0.814,1.855,0.804c5.225-0.088,11.449,2.116,16.83,5.087
		c-0.036,2.317-0.204,4.617-0.536,6.877c-0.522,3.568-1.408,7.045-2.638,10.363c-0.166,0.44-0.176,0.916-0.04,1.366
		c0.134,0.452,0.407,0.874,0.806,1.217c0.395,0.337,0.852,0.537,1.306,0.594c0.455,0.055,0.912-0.033,1.306-0.274
		c1.395-0.84,2.664-1.747,3.791-2.689c1.129-0.939,2.117-1.912,2.951-2.882c3.946,2.109,6.682,3.158,9.126,3.795
		s4.598,0.86,7.381,1.324c0.347,0.057,0.671,0.04,0.965-0.047c0.296-0.088,0.562-0.246,0.79-0.474"/>
	<path fill="#B28F56" d="M49.753,336.981c2.611,5.104,6.936,8.636,11.939,10.469c5.15,1.89,11.045,1.955,16.5,0.045
		c14.374-5.042,26.959-19.494,36.35-30.281c5.469-6.267,11.014-12.649,17.089-18.331c4.771-4.467,9.762-8.318,15.132-11.019
		c9.714-4.891,19.621-5.668,28.367-3.579c9.67,2.318,17.93,8.136,22.92,15.756c8.453,12.943,5.798,29.084-5.023,39.417
		c-3.521,3.361-7.762,5.865-12.326,7.104c-7.068,1.915-14.961,0.751-22.278-5.026c-4.44-3.52-7.044-8.497-7.658-13.699
		c-0.608-5.205,0.761-10.652,4.272-15.096c1.68-2.113,3.787-3.698,6.082-4.708c2.385-1.05,5.002-1.494,7.606-1.3
		c3.271,0.24,6.347,1.408,8.563,3.404c2.896,2.604,4.221,6.983,2.922,10.723c-1.047,3.032-3.555,5.047-6.918,5.048
		c-0.398-0.004-0.787-0.033-1.188-0.087c0.434-0.276,0.854-0.604,1.223-0.978c2.824-2.826,2.823-7.418,0-10.242
		c-2.826-2.829-7.42-2.829-10.246,0c-1.195,1.197-1.887,2.706-2.074,4.271c-0.457,3.918,2.197,8.041,5.572,10.068
		c2.023,1.229,4.383,1.855,6.703,1.861c5.461,0.007,9.822-3.327,11.549-8.33c1.939-5.595,0.123-12.011-4.271-15.964
		c-3.031-2.734-7.155-4.33-11.485-4.65c-3.388-0.25-6.806,0.328-9.935,1.705c-3.013,1.329-5.76,3.391-7.937,6.139
		c-4.337,5.499-6.052,12.249-5.288,18.707c0.756,6.458,3.971,12.626,9.464,16.967c8.687,6.858,18.122,8.221,26.609,5.92
		c5.337-1.451,10.302-4.372,14.413-8.299c12.526-11.944,15.511-30.688,5.74-45.63c-5.65-8.645-14.977-15.22-25.861-17.832
		c-9.811-2.349-20.902-1.49-31.734,3.958c-5.798,2.915-11.15,7.045-16.27,11.834c-6.198,5.799-11.828,12.265-17.418,18.663
		c-9.041,10.39-21.148,24.29-34.295,28.901c-4.362,1.529-9.062,1.479-13.186-0.032c-3.891-1.427-7.245-4.168-9.275-8.106
		c-1.233-2.41-1.782-5.136-1.428-7.947c0.343-2.599,1.468-5.315,3.574-7.974c2.055-2.607,4.971-4.137,8.015-4.496
		c3.044-0.356,6.237,0.451,8.836,2.505c1.17,0.923,2.048,2.071,2.636,3.325c-1.57-0.065-3.154,0.497-4.355,1.69
		c-2.262,2.264-2.262,5.932,0,8.195c1.559,1.561,3.794,2.045,5.771,1.451c0.887-0.266,1.726-0.75,2.424-1.451
		c0.439-0.445,0.801-0.951,1.073-1.482l0.046,0.017l0.143-0.426c0.225-0.546,0.354-1.118,0.42-1.693
		c0.374-2.14,0.244-4.343-0.361-6.412c-0.791-2.702-2.387-5.182-4.739-7.047c-3.665-2.895-8.157-4.026-12.449-3.526
		c-4.304,0.503-8.407,2.646-11.297,6.304c-2.688,3.395-4.138,6.939-4.581,10.397C47.329,330.019,48.074,333.723,49.753,336.981z"/>
</g>
</svg>
