<?xml version="1.0" encoding="utf-8"?>
<!-- Generator: Adobe Illustrator 14.0.0, SVG Export Plug-In . SVG Version: 6.00 Build 43363)  -->
<!DOCTYPE svg PUBLIC "-//W3C//DTD SVG 1.1//EN" "http://www.w3.org/Graphics/SVG/1.1/DTD/svg11.dtd">
<svg version="1.1" id="Layer_1" xmlns="http://www.w3.org/2000/svg" xmlns:xlink="http://www.w3.org/1999/xlink" x="0px" y="0px"
	 width="400px" height="400px" viewBox="0 0 400 400" enable-background="new 0 0 400 400" xml:space="preserve">
<g>
	<path fill="#B28F56" d="M197.863,297.365c-9.772,14.942-6.794,33.687,5.735,45.63c4.115,3.925,9.072,6.852,14.414,8.299
		c8.486,2.295,17.933,0.938,26.612-5.92c5.495-4.344,8.71-10.509,9.463-16.967c0.76-6.457-0.944-13.204-5.29-18.705
		c-2.176-2.761-4.916-4.816-7.938-6.141c-3.129-1.376-6.547-1.958-9.932-1.706c-4.337,0.317-8.454,1.915-11.49,4.647
		c-4.393,3.955-6.205,10.373-4.273,15.971c1.732,4.996,6.092,8.337,11.561,8.324c2.32,0,4.67-0.64,6.705-1.854
		c3.371-2.024,6.025-6.147,5.562-10.084c-0.188-1.557-0.875-3.063-2.074-4.258c-2.826-2.825-7.412-2.824-10.238,0
		c-2.831,2.824-2.832,7.414,0,10.237c0.371,0.382,0.781,0.705,1.211,0.983c-0.395,0.059-0.789,0.091-1.184,0.091
		c-3.363,0-5.867-2.017-6.922-5.055c-1.292-3.743,0.036-8.113,2.935-10.717c2.21-1.997,5.284-3.167,8.563-3.406
		c2.596-0.187,5.217,0.252,7.602,1.3c2.302,1.006,4.402,2.591,6.08,4.711c3.508,4.44,4.879,9.876,4.277,15.093
		c-0.613,5.196-3.222,10.179-7.669,13.703c-7.306,5.771-15.204,6.934-22.27,5.021c-4.562-1.241-8.802-3.743-12.331-7.11
		c-10.82-10.323-13.48-26.467-5.02-39.407c4.986-7.627,13.247-13.444,22.923-15.758c8.738-2.087,18.649-1.312,28.367,3.574
		c5.371,2.703,10.351,6.556,15.128,11.02c6.072,5.688,11.617,12.068,17.083,18.337c9.397,10.787,21.985,25.233,36.36,30.281
		c5.451,1.907,11.343,1.835,16.496-0.051c4.998-1.837,9.317-5.373,11.938-10.471c1.671-3.265,2.421-6.968,1.926-10.801
		c-0.45-3.451-1.897-7.005-4.586-10.4c-2.886-3.652-6.987-5.791-11.291-6.295c-4.294-0.51-8.791,0.627-12.448,3.524
		c-2.359,1.867-3.959,4.35-4.748,7.044c-0.604,2.068-0.73,4.272-0.349,6.412c0.049,0.575,0.19,1.144,0.407,1.693l0.14,0.427
		l0.05-0.019c0.273,0.543,0.628,1.041,1.074,1.493c0.705,0.698,1.542,1.176,2.431,1.441c1.971,0.588,4.207,0.109,5.765-1.441
		c2.266-2.269,2.266-5.939,0-8.195c-1.192-1.202-2.785-1.771-4.353-1.7c0.585-1.26,1.468-2.398,2.63-3.322
		c2.602-2.056,5.787-2.863,8.833-2.507c3.05,0.361,5.966,1.887,8.026,4.492c2.102,2.663,3.229,5.377,3.568,7.974
		c0.365,2.819-0.189,5.541-1.428,7.944c-2.021,3.943-5.384,6.69-9.275,8.119c-4.121,1.505-8.825,1.557-13.182,0.032
		c-13.146-4.615-25.26-18.518-34.299-28.898c-5.59-6.411-11.217-12.868-17.422-18.679c-5.115-4.776-10.467-8.913-16.266-11.828
		c-10.829-5.448-21.917-6.308-31.73-3.949C212.835,282.144,203.515,288.717,197.863,297.365z"/>
	<path fill="#B28F56" d="M51.91,348.093c0.226,0.226,0.493,0.384,0.788,0.473c0.296,0.086,0.62,0.103,0.963,0.043
		c2.783-0.462,4.938-0.687,7.381-1.323c2.445-0.637,5.18-1.686,9.127-3.795c0.836,0.973,1.826,1.946,2.954,2.887
		c1.128,0.94,2.396,1.846,3.787,2.685c0.396,0.24,0.851,0.33,1.308,0.275c0.455-0.055,0.911-0.254,1.307-0.595
		c0.397-0.339,0.672-0.763,0.805-1.213c0.135-0.451,0.127-0.926-0.037-1.365c-1.23-3.317-2.116-6.796-2.64-10.367
		c-0.331-2.255-0.499-4.551-0.536-6.864c5.385-2.972,11.61-5.175,16.832-5.087c0.733,0.006,1.369-0.258,1.861-0.808
		c0.49-0.543,0.703-1.202,0.614-1.926c-0.944-8.098,1.557-15.621,5.903-19.965l11.945-11.944l3.17,3.161
		c-0.637,0.736-1.229,1.5-1.791,2.289c-5.322,7.517-7.264,15.86-6.485,23.772c0.501,5.106,2.127,10.011,4.692,14.408
		c2.562,4.381,6.078,8.253,10.361,11.29c6.986,4.945,16.013,7.654,26.283,6.644c6.554-0.639,12.48-2.766,17.6-5.991
		c5.419-3.4,9.934-8.041,13.359-13.451c10.471-16.533,6.754-33.079,3.234-48.732c-0.861-3.854-2.012-8.875-2.766-13.685
		c-1.107-7.058-1.506-13.786,2.143-20.275c1.391-2.462,3.309-4.517,5.784-5.616c1.258-0.55,2.66-0.847,4.192-0.795
		c1.503,0.045,3.154,0.414,4.951,1.157c2.139,0.885,3.723,2.573,4.547,4.557c0.817,1.991,0.879,4.292-0.014,6.438
		c-0.663,1.59-1.906,2.766-3.379,3.367c-1.293,0.536-2.774,0.64-4.189,0.207c0.598-0.278,1.157-0.667,1.655-1.158
		c2.263-2.262,2.262-5.938-0.001-8.196c-2.262-2.262-5.933-2.262-8.191,0c-1.206,1.204-1.768,2.8-1.695,4.377
		c-0.092,1.447,0.153,2.882,0.695,4.201c0.912,2.204,2.681,4.078,5.075,5.08c2.84,1.176,5.891,1.099,8.519,0.007
		c2.627-1.086,4.848-3.18,6.023-6.017c1.41-3.381,1.315-7.026,0.016-10.167c-1.295-3.148-3.797-5.804-7.189-7.207
		c-2.359-0.982-4.593-1.467-6.674-1.531c-2.318-0.078-4.428,0.361-6.317,1.202c-3.529,1.545-6.188,4.37-8.067,7.705
		c-4.602,8.156-3.937,16.546-2.387,25.401c0.735,4.252,1.699,8.505,2.494,12.027c3.303,14.692,6.785,30.224-2.586,45.037
		c-3.043,4.802-7.051,8.913-11.847,11.926c-4.499,2.837-9.705,4.705-15.458,5.274c-9.014,0.878-16.904-1.467-22.984-5.778
		c-3.695-2.625-6.734-5.979-8.967-9.786c-2.215-3.788-3.617-8.015-4.046-12.384c-0.67-6.799,1.011-13.987,5.612-20.475
		c0.402-0.569,0.818-1.119,1.264-1.643l2.541,2.533c0.957,0.957,2.511,0.958,3.473,0.001c0.952-0.958,0.951-2.508-0.004-3.465
		l-2.541-2.546c1.156-0.97,2.403-1.835,3.723-2.604c8.215-4.751,18.55-5.042,26.157,1.246c7.585,6.29,10.47,17.995,3.839,26.017
		c-2.656,3.199-6.527,5.383-10.99,5.817c-1.762,0.16-3.458-0.039-5.013-0.537c-1.628-0.53-3.122-1.389-4.39-2.496
		c-1.182-1.04-2.178-2.301-2.907-3.722c-1.8-3.53-1.913-7.737,0.475-11.014c0.3,1.28,0.944,2.488,1.933,3.477
		c2.827,2.832,7.417,2.832,10.248,0c2.826-2.831,2.828-7.42,0-10.245c-2.188-2.186-5.143-2.463-7.988-1.7
		c-2.982,0.814-5.854,2.767-7.602,4.887c-4.039,4.867-4.211,11.376-1.422,16.824c1.015,1.971,2.383,3.716,4.029,5.164
		c1.766,1.544,3.846,2.734,6.119,3.471c2.195,0.711,4.562,0.988,6.977,0.77c5.803-0.55,10.84-3.4,14.283-7.563
		c8.394-10.132,5.246-24.877-4.467-32.911c-9.238-7.645-21.726-7.503-31.737-1.706c-1.688,0.97-3.274,2.094-4.734,3.354
		l-3.171-3.167l52.124-52.115c3.3,1.796,7.517,1.312,10.312-1.486c2.88-2.883,3.312-7.278,1.306-10.619
		c6.279-4.583,11.13-5.501,19.205-4.99c0.449,0.019,0.848-0.11,1.185-0.42c0.339-0.297,0.513-0.691,0.526-1.137
		c0.481-14.544,13.94-29.008,21.076-36.144c0.633-0.64,0.634-1.655,0.008-2.288h-0.008c-0.626-0.633-1.65-0.628-2.281,0
		c-7.143,7.136-21.601,20.592-36.143,21.083c-0.453,0.013-0.838,0.188-1.141,0.518c-0.308,0.342-0.446,0.737-0.418,1.188
		c0.512,8.074-0.406,12.928-5,19.204c-3.338-2.004-7.732-1.564-10.615,1.312c-2.789,2.792-3.283,7.012-1.486,10.31l-52.114,52.12
		l-3.163-3.161c1.253-1.467,2.381-3.058,3.354-4.745c5.801-10.011,5.943-22.498-1.707-31.742
		c-8.037-9.707-22.783-12.854-32.908-4.46c-4.168,3.446-7.018,8.475-7.561,14.285c-0.23,2.417,0.054,4.783,0.768,6.975
		c0.734,2.268,1.928,4.355,3.475,6.12c1.438,1.648,3.184,3.012,5.161,4.02c5.449,2.799,11.944,2.631,16.823-1.415
		c2.111-1.745,4.073-4.623,4.875-7.608c0.775-2.843,0.494-5.785-1.691-7.982c-2.83-2.824-7.416-2.824-10.246,0.001
		c-2.826,2.83-2.826,7.414,0,10.25c0.994,0.988,2.207,1.635,3.476,1.926c-3.267,2.392-7.49,2.288-11.007,0.479
		c-1.429-0.73-2.688-1.726-3.723-2.902c-1.114-1.274-1.968-2.766-2.494-4.396c-0.501-1.544-0.701-3.251-0.537-5.01
		c0.42-4.459,2.611-8.337,5.816-10.986c8.008-6.632,19.721-3.756,26.007,3.833c6.292,7.6,6.007,17.942,1.249,26.157
		c-0.762,1.318-1.633,2.565-2.604,3.722l-2.54-2.546c-0.956-0.957-2.515-0.957-3.468,0c-0.961,0.963-0.963,2.521-0.003,3.477
		l2.54,2.534c-0.53,0.453-1.08,0.867-1.641,1.267c-6.5,4.602-13.686,6.283-20.48,5.61c-4.366-0.426-8.6-1.823-12.395-4.039
		c-3.8-2.23-7.154-5.274-9.775-8.979c-4.312-6.074-6.657-13.96-5.775-22.978c0.566-5.745,2.432-10.955,5.262-15.447
		c3.02-4.802,7.133-8.816,11.935-11.848c14.812-9.385,30.343-5.894,45.033-2.598c3.526,0.801,7.772,1.758,12.028,2.508
		c8.854,1.538,17.245,2.204,25.405-2.398c3.337-1.875,6.159-4.544,7.711-8.066c0.833-1.893,1.267-4,1.192-6.314
		c-0.059-2.075-0.543-4.311-1.525-6.677c-1.416-3.387-4.065-5.888-7.203-7.187c-3.145-1.3-6.794-1.402-10.181,0.006
		c-2.835,1.189-4.927,3.406-6.014,6.03c-1.09,2.637-1.17,5.682,0.011,8.512c0.992,2.398,2.868,4.163,5.082,5.08
		c1.315,0.543,2.753,0.789,4.198,0.692c1.577,0.077,3.177-0.491,4.374-1.687c2.264-2.269,2.263-5.926-0.001-8.196
		c-2.263-2.262-5.929-2.255-8.19,0c-0.494,0.498-0.885,1.061-1.156,1.655c-0.436-1.416-0.336-2.889,0.197-4.189
		c0.609-1.479,1.787-2.715,3.374-3.374c2.143-0.892,4.446-0.839,6.435-0.012c1.984,0.821,3.668,2.405,4.555,4.545
		c0.75,1.797,1.113,3.443,1.164,4.95c0.047,1.525-0.244,2.935-0.798,4.195c-1.095,2.475-3.153,4.388-5.626,5.778
		c-6.482,3.651-13.211,3.25-20.266,2.146c-4.812-0.75-9.834-1.9-13.69-2.766c-15.649-3.516-32.197-7.238-48.729,3.232
		c-5.404,3.426-10.049,7.95-13.457,13.366c-3.219,5.112-5.34,11.04-5.982,17.599c-1.008,10.258,1.69,19.294,6.642,26.28
		c3.041,4.285,6.913,7.796,11.291,10.361c4.389,2.566,9.302,4.195,14.401,4.693c7.918,0.775,16.265-1.158,23.781-6.49
		c0.789-0.556,1.555-1.157,2.285-1.783l3.168,3.16l-11.952,11.952c-4.34,4.343-11.873,6.844-19.956,5.894
		c-0.73-0.077-1.393,0.129-1.936,0.621c-0.539,0.491-0.814,1.13-0.805,1.855c0.088,5.225-2.115,11.449-5.086,16.831
		c-2.317-0.036-4.617-0.205-6.878-0.536c-3.568-0.523-7.045-1.409-10.363-2.639c-0.44-0.166-0.916-0.174-1.366-0.04
		c-0.451,0.134-0.875,0.408-1.217,0.804c-0.338,0.397-0.537,0.853-0.593,1.308c-0.056,0.455,0.032,0.911,0.273,1.306
		c0.841,1.394,1.747,2.663,2.688,3.791c0.939,1.128,1.912,2.116,2.883,2.95c-2.109,3.947-3.158,6.682-3.795,9.126
		s-0.861,4.598-1.324,7.381c-0.057,0.346-0.041,0.671,0.047,0.965c0.088,0.295,0.246,0.562,0.474,0.79"/>
	<path fill="#B28F56" d="M63.019,49.752c-5.104,2.611-8.636,6.935-10.469,11.939c-1.89,5.15-1.955,11.045-0.045,16.5
		c5.041,14.375,19.493,26.959,30.281,36.35c6.266,5.469,12.648,11.014,18.33,17.089c4.467,4.77,8.318,9.76,11.02,15.131
		c4.891,9.714,5.668,19.622,3.578,28.367c-2.317,9.67-8.135,17.93-15.755,22.92c-12.943,8.454-29.085,5.798-39.417-5.023
		c-3.361-3.521-5.865-7.762-7.104-12.326c-1.916-7.069-0.752-14.961,5.025-22.278c3.52-4.44,8.497-7.044,13.699-7.658
		c5.205-0.608,10.652,0.761,15.096,4.271c2.113,1.681,3.697,3.788,4.708,6.083c1.05,2.385,1.493,5.002,1.3,7.607
		c-0.239,3.271-1.408,6.347-3.404,8.564c-2.604,2.896-6.983,4.221-10.723,2.921c-3.031-1.047-5.047-3.555-5.047-6.917
		c0.004-0.4,0.032-0.788,0.087-1.188c0.275,0.433,0.604,0.853,0.979,1.222c2.825,2.825,7.418,2.824,10.242,0
		c2.828-2.825,2.828-7.42,0-10.245c-1.198-1.195-2.706-1.886-4.271-2.074c-3.919-0.458-8.042,2.197-10.068,5.571
		c-1.229,2.023-1.855,4.382-1.861,6.702c-0.007,5.461,3.328,9.824,8.331,11.549c5.595,1.94,12.011,0.124,15.964-4.271
		c2.734-3.032,4.33-7.155,4.65-11.486c0.25-3.386-0.328-6.806-1.705-9.934c-1.329-3.012-3.391-5.759-6.139-7.937
		c-5.499-4.337-12.248-6.05-18.707-5.288c-6.457,0.757-12.627,3.97-16.967,9.463c-6.857,8.687-8.222,18.122-5.92,26.61
		c1.451,5.337,4.372,10.302,8.299,14.413c11.944,12.526,30.688,15.511,45.631,5.74c8.646-5.649,15.221-14.976,17.832-25.86
		c2.348-9.812,1.49-20.902-3.958-31.735c-2.915-5.798-7.046-11.149-11.834-16.269c-5.799-6.198-12.265-11.829-18.663-17.418
		c-10.389-9.042-24.289-21.148-28.9-34.294c-1.529-4.363-1.48-9.063,0.031-13.186c1.428-3.891,4.168-7.246,8.105-9.275
		c2.41-1.234,5.137-1.783,7.947-1.429c2.6,0.343,5.315,1.468,7.975,3.576c2.607,2.055,4.137,4.97,4.495,8.015
		c0.356,3.043-0.45,6.237-2.505,8.835c-0.923,1.17-2.07,2.049-3.324,2.637c0.064-1.571-0.497-3.154-1.691-4.356
		c-2.264-2.262-5.932-2.262-8.195,0c-1.561,1.558-2.045,3.794-1.451,5.771c0.266,0.886,0.751,1.726,1.451,2.424
		c0.446,0.44,0.951,0.801,1.482,1.073l-0.018,0.045l0.426,0.143c0.547,0.226,1.119,0.355,1.693,0.42
		c2.141,0.375,4.344,0.245,6.412-0.361c2.702-0.79,5.184-2.386,7.048-4.738c2.896-3.665,4.026-8.157,3.526-12.449
		c-0.503-4.305-2.646-8.409-6.303-11.297c-3.396-2.689-6.94-4.137-10.398-4.582C69.981,47.329,66.277,48.073,63.019,49.752z"/>
</g>
</svg>
