<?xml version="1.0" encoding="utf-8"?>
<!DOCTYPE svg PUBLIC "-//W3C//DTD SVG 1.1//EN" "http://www.w3.org/Graphics/SVG/1.1/DTD/svg11.dtd">
<svg version="1.1" id="Layer_1" xmlns="http://www.w3.org/2000/svg" xmlns:xlink="http://www.w3.org/1999/xlink" x="0px" y="0px"
	 width="17.819px" height="17.863px" viewBox="72.943 0 17.819 17.863" enable-background="new 72.943 0 17.819 17.863"
	 xml:space="preserve">
<g id="Layer_1_1_">
</g>
<g id="logo">
	<g>
		<path fill="#B28F56" d="M90.457,17.184l-0.068-0.004l0.004-0.404c0.017-0.008,0.024-0.027,0.017-0.044
			c-0.002-0.005-0.006-0.011-0.011-0.014l-0.014-0.032l-0.219-0.615l0.01-0.272l0.036-0.006c0.024-0.007,0.039-0.031,0.032-0.056
			c-0.004-0.016-0.017-0.028-0.032-0.032l-0.103-0.207l0.004-0.26l0.065-0.018l-0.002-0.225l0.047-0.013
			c0.015-0.004,0.024-0.02,0.02-0.035c-0.003-0.01-0.01-0.017-0.02-0.02l-0.052-0.062l0.046,0.002l0.005-0.1
			c-0.003-0.011-0.015-0.017-0.025-0.014c-0.006,0.002-0.012,0.008-0.013,0.015v0.036l-0.012,0.002l-2.617-4.618l0.024-0.049
			l-0.046,0.001l0.007-0.128c-0.001-0.028-0.025-0.051-0.054-0.049c-0.028,0-0.05,0.022-0.05,0.049l-0.002,0.135l-0.064-0.008
			l0.034,0.059l-1.458,2.566l-2.135,0.024l-0.295-0.604l0.009-0.709l0.066-0.087l-0.27-0.591l-0.003-0.421l0.048-0.108l0.062-1.124
			l0.056-0.006c0.021,0.016,0.05,0.011,0.065-0.009c0.016-0.021,0.011-0.049-0.009-0.066c-0.004-0.003-0.01-0.005-0.015-0.007
			l-0.044-0.071l-0.006-0.516l0.069-0.063c0.02-0.021,0.02-0.053,0-0.074c-0.02-0.02-0.053-0.02-0.075,0.002l-0.035,0.043
			l-0.043-0.027l0.003,0.031l-0.506,0.002l-0.214-0.576h0.154c0.026-0.006,0.042-0.032,0.036-0.059
			c-0.004-0.019-0.018-0.033-0.036-0.037c0.037-0.017,0.053-0.061,0.036-0.098c-0.007-0.016-0.02-0.028-0.036-0.037h-0.07V7.53
			V7.437h-0.119V7.06h0.192c0.031-0.015,0.044-0.052,0.029-0.083c-0.006-0.013-0.016-0.022-0.029-0.03h-0.054V6.913h0.037
			c0.022-0.032,0.022-0.074,0-0.106h-0.186l-0.126-2.728h0.137c0.021-0.008,0.032-0.03,0.025-0.051
			c-0.004-0.01-0.013-0.02-0.025-0.024h-0.023V3.984h0.019c0.022-0.004,0.037-0.024,0.033-0.047
			c-0.002-0.016-0.015-0.029-0.033-0.032h-0.131v-0.28h0.146c0.027-0.022,0.033-0.062,0.011-0.089
			c-0.004-0.005-0.007-0.009-0.011-0.012H82.63V3.506h0.019c0.019-0.01,0.026-0.035,0.016-0.054
			c-0.003-0.007-0.009-0.014-0.016-0.017h-0.173l-0.533-3.169L81.41,3.435h-0.173c-0.02,0.01-0.027,0.035-0.016,0.055
			c0.003,0.007,0.009,0.013,0.016,0.017h0.018v0.017h-0.018c-0.028,0.021-0.033,0.062-0.011,0.089
			c0.003,0.005,0.007,0.009,0.011,0.012h0.144v0.28H81.25c-0.022,0.004-0.036,0.025-0.032,0.047
			c0.003,0.017,0.016,0.029,0.032,0.032h0.021v0.021h-0.024c-0.021,0.007-0.031,0.03-0.024,0.051
			c0.004,0.013,0.013,0.021,0.024,0.024h0.137l-0.125,2.728h-0.186c-0.023,0.032-0.023,0.075,0,0.106h0.036v0.034h-0.053
			C81.023,6.963,81.01,7,81.026,7.031c0.005,0.013,0.015,0.023,0.029,0.029h0.19v0.377h-0.117V7.53v0.048h-0.071
			c-0.037,0.017-0.053,0.061-0.036,0.097c0.007,0.017,0.02,0.03,0.036,0.037c-0.026,0.006-0.042,0.032-0.036,0.059
			c0.004,0.019,0.017,0.032,0.036,0.037h0.153l-0.213,0.576L80.491,8.38l0.003-0.031L80.45,8.377l-0.035-0.044
			c-0.019-0.021-0.052-0.022-0.074-0.003c-0.021,0.02-0.022,0.053-0.001,0.076l0.069,0.062l-0.006,0.516l-0.044,0.071
			c-0.024,0.007-0.039,0.034-0.031,0.058c0.007,0.025,0.033,0.039,0.057,0.031C80.39,9.142,80.396,9.14,80.4,9.136l0.056,0.006
			l0.062,1.124l0.049,0.108l-0.003,0.421l-0.27,0.591l0.066,0.087l0.009,0.709l-0.294,0.604l-2.136-0.023l-1.457-2.566l0.033-0.059
			l-0.063,0.008l-0.002-0.135c-0.001-0.028-0.025-0.05-0.054-0.049c-0.026,0-0.049,0.022-0.049,0.049l0.007,0.128l-0.047-0.001
			l0.024,0.049l-2.616,4.617l-0.012-0.001v-0.036c-0.003-0.011-0.013-0.017-0.023-0.015c-0.007,0.001-0.013,0.006-0.015,0.013
			l0.005,0.1l0.046-0.002l-0.052,0.062c-0.015,0.004-0.024,0.02-0.02,0.035c0.003,0.009,0.011,0.017,0.02,0.02l0.047,0.013
			l-0.002,0.225l0.066,0.019l0.004,0.26l-0.103,0.207c-0.024,0.006-0.039,0.032-0.032,0.056c0.004,0.015,0.016,0.028,0.032,0.032
			l0.037,0.005l0.01,0.272L73.5,16.685l-0.015,0.032c-0.014,0.011-0.019,0.031-0.007,0.046c0.003,0.005,0.007,0.009,0.014,0.012
			l0.003,0.404l-0.067,0.004l-0.06,0.14l0.011,0.021l0.005,0.256h7.892c0,0,0-0.002,0-0.002l0-0.011l0-0.012l0-0.012l0-0.011
			l0-0.012v-0.012l0-0.012v-0.011l0-0.013V17.48l0-0.012v-0.011l0-0.013v-0.012l0-0.012l0-0.012v-0.012l0-0.004v-0.005l0-0.005
			l0-0.004v-0.004l0-0.005l0-0.005V17.36l0-0.005v-0.004v-0.005v-0.004l0-0.004c0,0,0-0.004-0.001-0.008
			c0,0-0.001-0.004-0.002-0.007c0,0-0.001-0.003-0.002-0.004c0,0-0.001-0.002-0.003-0.005c0,0-0.001-0.001-0.003-0.004
			c0,0-0.002-0.001-0.004-0.004c0,0-0.002-0.001-0.005-0.004c0,0-0.002-0.001-0.006-0.004c0,0-0.002-0.001-0.005-0.004
			c0,0-0.002-0.001-0.006-0.004c0,0-0.002-0.001-0.004-0.004c0,0-0.001-0.001-0.005-0.004c0,0-0.001-0.001-0.003-0.004
			c0,0-0.001-0.002-0.004-0.005c0,0-0.001-0.001-0.003-0.004c0,0-0.002-0.003-0.005-0.007c0,0-0.002-0.003-0.005-0.007
			c0,0-0.003-0.003-0.005-0.007c0,0-0.003-0.003-0.005-0.007c0,0-0.002-0.003-0.004-0.007c0,0-0.002-0.003-0.005-0.007
			c0,0-0.002-0.004-0.003-0.009l-0.002-0.004l-0.001-0.004l-0.001-0.005l-0.001-0.006v-0.005l-0.001-0.007l0-0.007l-0.001-0.006
			l0-0.007l0-0.007l0-0.007l0-0.007v-0.007v-0.007l0-0.007v-0.007V17.11v-0.008v-0.007v-0.007V17.08v-0.093v-0.102v-0.103v-0.102
			v-0.102v-0.101v-0.103v-0.102v-0.101V16.07v-0.103v-0.102v-0.101v-0.102v-0.103v-0.102v-0.102c0,0,0-0.095,0-0.099
			c0,0,0-0.004,0-0.007c0,0,0-0.003,0-0.007c0,0,0-0.004,0-0.008c0,0,0-0.003,0-0.007c0,0,0-0.003,0-0.007c0,0,0-0.004,0-0.006
			c0,0,0-0.003,0-0.007c0,0,0-0.004,0.001-0.007l0-0.005l0.001-0.01l0.001-0.009l0.001-0.009l0.001-0.009l0.001-0.01l0.001-0.01
			l0.001-0.009l0.001-0.01l0.001-0.01l0.002-0.01l0.001-0.01l0.001-0.01l0.001-0.009l0.001-0.01l0.001-0.01l0.001-0.01l0.001-0.008
			c0,0,0.001-0.007,0.002-0.01c0,0,0-0.003,0.001-0.007c0,0,0-0.003,0.001-0.006c0,0,0-0.003,0-0.006c0,0,0-0.003,0.001-0.006
			c0,0,0-0.003,0.001-0.006c0,0,0-0.003,0.001-0.006c0,0,0.001-0.003,0.001-0.006c0,0,0.001-0.002,0.001-0.005l0.002-0.009
			l0.005-0.014l0.004-0.014l0.004-0.013l0.004-0.013l0.005-0.014l0.005-0.015l0.005-0.013l0.004-0.013l0.005-0.014l0.005-0.013
			l0.004-0.013l0.004-0.015l0.004-0.013l0.004-0.013l0.004-0.014l0.005-0.013l0.004-0.014l0.005-0.011l0.003-0.011l0.004-0.011
			l0.004-0.01l0.004-0.01l0.003-0.011l0.005-0.011l0.004-0.01l0.005-0.01l0.004-0.01l0.005-0.01l0.004-0.01l0.005-0.01l0.004-0.01
			l0.005-0.009l0.005-0.011l0.003-0.01l0.004-0.009l0.003-0.005l0.001-0.006l0.002-0.004l0.002-0.005l0.002-0.005l0.002-0.005
			l0.002-0.004l0.002-0.006l0.003-0.005l0.002-0.004l0.002-0.005l0.002-0.005l0.002-0.004l0.003-0.005l0.002-0.005l0.002-0.006
			l0.002-0.004l0.002-0.005l0.005-0.011l0.006-0.012l0.006-0.012l0.007-0.012l0.007-0.011l0.005-0.012l0.007-0.013l0.006-0.012
			l0.006-0.012l0.007-0.012l0.005-0.012l0.007-0.012l0.006-0.011l0.006-0.012l0.007-0.013l0.005-0.012l0.006-0.012l0.005-0.01
			c0,0,0.002-0.002,0.003-0.005c0,0,0.001-0.002,0.002-0.004c0,0,0.001-0.002,0.002-0.004c0,0,0.001-0.002,0.003-0.005
			c0,0,0.002-0.002,0.005-0.006c0,0,0.002-0.002,0.005-0.005c0,0,0.002-0.002,0.004-0.006l0.005-0.006l0.013-0.017l0.014-0.016
			l0.013-0.015l0.012-0.016l0.013-0.016l0.014-0.015l0.014-0.016l0.012-0.016l0.014-0.015l0.014-0.016l0.012-0.016l0.014-0.015
			L81.733,14l0.014-0.016l0.012-0.016l0.014-0.016l0.014-0.017c0,0,0.009-0.009,0.012-0.013c0,0,0.002-0.004,0.005-0.008
			c0,0,0.003-0.003,0.008-0.008c0,0,0.003-0.003,0.007-0.007c0,0,0.004-0.004,0.008-0.007c0,0,0.004-0.003,0.007-0.007
			c0,0,0.004-0.004,0.008-0.007c0,0,0.004-0.003,0.007-0.006c0,0,0.004-0.003,0.009-0.007c0,0,0.002-0.002,0.005-0.004
			c0,0,0.002-0.002,0.005-0.005c0,0,0.002-0.001,0.007-0.005c0,0,0.002-0.001,0.006-0.005c0,0,0.002-0.001,0.006-0.005
			c0,0,0.002-0.001,0.006-0.004c0,0,0.002-0.002,0.005-0.005c0,0,0.002-0.001,0.005-0.004c0,0,0.003-0.002,0.006-0.005
			c0,0,0.002-0.001,0.006-0.005c0,0,0.002-0.002,0.006-0.005c0,0,0.002-0.001,0.006-0.004c0,0,0.002-0.001,0.005-0.002
			c0,0,0.001-0.001,0.005-0.002c0,0,0.002,0,0.004-0.001c0,0,0.001,0,0.003-0.001c0,0,0.003,0,0.004-0.001c0,0,0.002,0,0.006-0.001
			c0,0,0.002,0,0.006,0c0,0,0.002,0,0.005,0.001c0,0,0.002,0.001,0.006,0.003c0,0,0.002,0.002,0.004,0.004
			c0,0,0.003,0.002,0.005,0.004c0,0,0.001,0.002,0.004,0.004c0,0,0.003,0.002,0.004,0.005c0,0,0.002,0.002,0.004,0.003
			c0,0,0.002,0.002,0.005,0.005l0.005,0.004l0.007,0.005l0.006,0.005l0.007,0.005l0.006,0.005l0.006,0.004l0.005,0.005l0.006,0.005
			l0.006,0.005l0.007,0.005l0.006,0.004l0.006,0.005l0.006,0.005l0.005,0.004l0.005,0.005l0.007,0.005l0.006,0.005l0.007,0.006
			l0.008,0.007l0.008,0.006l0.007,0.007l0.007,0.008l0.007,0.007l0.007,0.008l0.007,0.007l0.007,0.007l0.008,0.008l0.005,0.007
			L82.192,14l0.007,0.007l0.007,0.008l0.007,0.007l0.005,0.007l0.008,0.007l0.006,0.007l0.006,0.008l0.007,0.008l0.007,0.008
			l0.007,0.007l0.007,0.009l0.007,0.008l0.006,0.009l0.005,0.008l0.006,0.008l0.007,0.007l0.006,0.009l0.006,0.008l0.007,0.009
			l0.005,0.009l0.006,0.008l0.005,0.008l0.006,0.009l0.007,0.009l0.003,0.005l0.003,0.004l0.003,0.004l0.003,0.004l0.003,0.004
			l0.004,0.003l0.002,0.005l0.003,0.004l0.003,0.005l0.003,0.004l0.002,0.005l0.002,0.004l0.003,0.004l0.003,0.004l0.002,0.004
			l0.002,0.005l0.003,0.003l0.002,0.005l0.003,0.004l0.002,0.005l0.003,0.004l0.003,0.005l0.002,0.005l0.003,0.005l0.002,0.004
			l0.002,0.004l0.002,0.004l0.001,0.004l0.003,0.005l0.002,0.005l0.002,0.005l0.003,0.005l0.003,0.005l0.003,0.005l0.002,0.004
			l0.003,0.005l0.005,0.01l0.006,0.01l0.005,0.008l0.004,0.01l0.006,0.009l0.005,0.01l0.005,0.009l0.005,0.01l0.005,0.01
			l0.005,0.009l0.006,0.01l0.005,0.01l0.005,0.01l0.004,0.009l0.005,0.01l0.004,0.01l0.004,0.01l0.004,0.012l0.007,0.016
			l0.006,0.016l0.006,0.016l0.006,0.015l0.006,0.016l0.006,0.016l0.006,0.015l0.006,0.016l0.006,0.016l0.006,0.016l0.005,0.015
			l0.006,0.017l0.006,0.015l0.006,0.017l0.007,0.016l0.005,0.016l0.007,0.016c0,0,0.004,0.011,0.005,0.014
			c0,0,0.002,0.002,0.003,0.005c0,0,0,0.003,0.001,0.006c0,0,0.001,0.002,0.002,0.005c0,0,0.001,0.002,0.002,0.005
			c0,0,0.001,0.003,0.001,0.006c0,0,0,0.002,0.002,0.005c0,0,0.001,0.002,0.001,0.005c0,0,0,0.003,0.001,0.006l0.001,0.009
			l0.002,0.015l0.002,0.016l0.002,0.015l0.002,0.016l0.002,0.015l0.002,0.016l0.003,0.015l0.002,0.016l0.002,0.016l0.002,0.016
			l0.003,0.015l0.002,0.017l0.002,0.016l0.003,0.015l0.002,0.017l0.002,0.016l0.002,0.016l0.001,0.009l0.001,0.007l0.001,0.006
			l0.001,0.006l0,0.006l0.001,0.006l0.001,0.006l0.001,0.007l0,0.006l0,0.006l0.001,0.007l0.001,0.005l0,0.007l0.001,0.006l0,0.006
			l0,0.008l0,0.005v0.007l0.001,0.02l0.001,0.021l0,0.021l0.001,0.021l0.001,0.021l0,0.021l0.001,0.021l0.001,0.021l0,0.022
			l0.001,0.021l0.001,0.021l0,0.021l0,0.021l0.001,0.022l0,0.021l0,0.021l0,0.021l0.001,0.02l0,0.014v0.015l0,0.014v0.015v0.015
			v0.014v0.015v0.015v0.014v0.014v0.015v0.015v0.015v0.014v0.016v0.014v0.015l0,0.021v0.043v0.044l0,0.043v0.043v0.044v0.043
			l0,0.044v0.043V16.3v0.044v0.044v0.044l0,0.043l0,0.043l0,0.043l0,0.044l0,0.043l0,0.036l0,0.022l0.001,0.021l0,0.021v0.022v0.021
			v0.022v0.022v0.022v0.021v0.022v0.021v0.022v0.022v0.021v0.022v0.022v0.022v0.014v0.008v0.007v0.007v0.007v0.008v0.008v0.007
			v0.007v0.008v0.006v0.008v0.007v0.006v0.008v0.007v0.007v0.006c0,0-0.001,0.003-0.002,0.007c0,0,0,0.002-0.001,0.005
			c0,0-0.001,0.002-0.001,0.005c0,0-0.001,0.002-0.002,0.005c0,0,0,0.003-0.001,0.006c0,0,0,0.002-0.001,0.004
			c0,0-0.001,0.002-0.002,0.005c0,0-0.001,0.002-0.002,0.004c0,0-0.001,0.002-0.005,0.006c0,0-0.002,0.001-0.006,0.005
			c0,0-0.001,0.002-0.004,0.005c0,0-0.002,0.002-0.005,0.004c0,0-0.002,0.001-0.004,0.003c0,0-0.002,0.002-0.005,0.004
			c0,0-0.003,0.002-0.005,0.003c0,0-0.002,0.001-0.005,0.003c0,0-0.002,0.002-0.005,0.003c0,0-0.002,0.001-0.004,0.003
			c0,0-0.003,0.002-0.006,0.003c0,0-0.002,0.001-0.004,0.003c0,0-0.003,0.001-0.005,0.002c0,0-0.002,0.001-0.006,0.003
			c0,0-0.002,0.001-0.005,0.002c0,0-0.002,0.002-0.005,0.003c0,0-0.003,0.001-0.006,0.003c0,0-0.002,0.001-0.005,0.005l0,0.015
			l0.001,0.015l0,0.017l0.001,0.016l0.001,0.016l0.001,0.018l0.001,0.016l0.001,0.017l0.001,0.018l0.001,0.016l0.001,0.017
			l0.001,0.017l0.001,0.016l0,0.017l0.001,0.016l0,0.016v0.015c0,0,0,0.011,0,0.016v0H90.5l0.004-0.256l0.012-0.021L90.457,17.184z
			 M76.89,14.473c0.044,0.041,0.063,0.104,0.049,0.162c-0.032-0.042-0.079-0.073-0.13-0.086c-0.053,0.012-0.097,0.045-0.127,0.09
			c-0.021-0.061,0.001-0.129,0.055-0.164c0.005-0.07,0.031-0.136,0.073-0.192C76.863,14.332,76.892,14.402,76.89,14.473z
			 M76.375,14.316c-0.002,0.022-0.006,0.042-0.017,0.061c-0.038,0.076-0.129,0.106-0.205,0.068c-0.075-0.039-0.105-0.13-0.067-0.206
			c0.038-0.075,0.129-0.105,0.205-0.067c-0.019-0.011-0.035-0.027-0.046-0.046c-0.047-0.07-0.027-0.167,0.044-0.214
			c0.072-0.047,0.167-0.028,0.215,0.044c0.047,0.071,0.028,0.167-0.044,0.214c0.017-0.007,0.036-0.012,0.055-0.014
			c0.083-0.005,0.155,0.057,0.16,0.14c0.005,0.083-0.057,0.155-0.14,0.159C76.452,14.462,76.381,14.4,76.375,14.316z M76.481,14.513
			l-0.057,0.039l-0.049-0.022l-0.052,0.022l-0.039-0.04c0.035,0,0.068-0.017,0.091-0.045C76.401,14.499,76.44,14.517,76.481,14.513z
			 M76.74,14.262c-0.031-0.069-0.089-0.125-0.16-0.154c0.019-0.028,0.02-0.063,0.004-0.092l0.002-0.015
			c0.078,0.059,0.143,0.133,0.19,0.218L76.74,14.262z M76.264,12.222c-0.017-0.113,0.036-0.224,0.134-0.281
			c0.089,0.065,0.14,0.171,0.134,0.282c0.081,0.029,0.141,0.098,0.157,0.182c-0.097,0.039-0.205,0.027-0.291-0.031
			c-0.07,0.072-0.183,0.085-0.268,0.031C76.15,12.329,76.197,12.264,76.264,12.222z M76.164,14.001l0.003,0.015
			c-0.016,0.028-0.015,0.063,0.003,0.092c-0.071,0.029-0.127,0.085-0.16,0.154l-0.036-0.043
			C76.022,14.134,76.087,14.059,76.164,14.001z M75.86,14.473c-0.002-0.071,0.027-0.141,0.08-0.189
			c0.043,0.056,0.068,0.122,0.073,0.192c0.054,0.034,0.078,0.103,0.056,0.164c-0.029-0.045-0.074-0.078-0.126-0.09
			c-0.052,0.013-0.098,0.043-0.131,0.086C75.797,14.576,75.816,14.514,75.86,14.473z M76.119,16.145h-0.357l-0.009-1.31
			c0.013-0.035,0.041-0.063,0.076-0.077c0.011-0.063,0.054-0.115,0.114-0.138c0.058,0.023,0.099,0.076,0.106,0.138
			c0.036,0.014,0.062,0.042,0.073,0.079L76.119,16.145z M76.135,14.664c0.008-0.038,0.006-0.077-0.006-0.114
			c0.043,0.025,0.094,0.039,0.145,0.038c-0.042,0.033-0.073,0.079-0.089,0.13L76.135,14.664z M76.556,16.143h-0.357l-0.003-1.307
			c0.011-0.036,0.039-0.064,0.073-0.078c0.008-0.062,0.049-0.115,0.107-0.138c0.06,0.022,0.103,0.075,0.113,0.138
			c0.036,0.014,0.063,0.042,0.077,0.078L76.556,16.143z M76.616,14.664l-0.05,0.054c-0.017-0.052-0.047-0.098-0.09-0.13
			c0.051,0.001,0.102-0.011,0.145-0.037C76.609,14.588,76.607,14.626,76.616,14.664z M76.989,16.145h-0.357l-0.003-1.307
			c0.011-0.037,0.04-0.065,0.074-0.079c0.008-0.062,0.049-0.115,0.107-0.138c0.06,0.022,0.103,0.075,0.113,0.138
			c0.036,0.014,0.062,0.042,0.076,0.077L76.989,16.145z M88.025,14.473c0.044,0.041,0.063,0.104,0.048,0.162
			c-0.033-0.042-0.079-0.073-0.131-0.086c-0.052,0.012-0.098,0.045-0.126,0.09c-0.022-0.061,0.001-0.129,0.055-0.164
			c0.005-0.07,0.03-0.136,0.073-0.192C87.998,14.332,88.027,14.402,88.025,14.473z M87.509,14.316
			c-0.001,0.02-0.005,0.038-0.013,0.055c-0.037,0.076-0.126,0.107-0.2,0.072c-0.077-0.037-0.108-0.126-0.072-0.201
			c0.036-0.075,0.125-0.106,0.2-0.071c-0.019-0.011-0.033-0.027-0.045-0.046c-0.046-0.071-0.025-0.167,0.047-0.213
			c0.072-0.046,0.168-0.025,0.214,0.047c0.046,0.072,0.025,0.167-0.048,0.213c0.019-0.009,0.04-0.015,0.061-0.016
			c0.084-0.004,0.157,0.06,0.162,0.145c0.004,0.083-0.061,0.155-0.145,0.159C87.586,14.465,87.514,14.401,87.509,14.316z
			 M87.601,14.512l-0.04,0.04l-0.052-0.021l-0.05,0.022l-0.056-0.039c0.042,0.003,0.081-0.014,0.105-0.047
			C87.532,14.495,87.565,14.512,87.601,14.512z M87.911,14.219l-0.036,0.043c-0.032-0.069-0.09-0.125-0.16-0.155
			c0.019-0.028,0.02-0.063,0.003-0.091l0.003-0.015C87.798,14.059,87.864,14.134,87.911,14.219z M87.353,12.224
			c-0.004-0.111,0.046-0.217,0.135-0.282c0.098,0.056,0.151,0.167,0.134,0.28c0.066,0.042,0.114,0.107,0.133,0.183
			c-0.084,0.055-0.197,0.042-0.267-0.031c-0.086,0.058-0.195,0.069-0.292,0.031C87.213,12.322,87.272,12.252,87.353,12.224z
			 M87.299,14.001l0.002,0.015c-0.016,0.028-0.015,0.063,0.004,0.091c-0.071,0.029-0.129,0.085-0.16,0.155l-0.036-0.043
			C87.157,14.134,87.221,14.059,87.299,14.001z M86.995,14.473c-0.002-0.071,0.026-0.141,0.08-0.189
			c0.043,0.056,0.068,0.122,0.074,0.192c0.054,0.034,0.077,0.103,0.055,0.164c-0.03-0.045-0.075-0.078-0.127-0.09
			c-0.052,0.013-0.098,0.043-0.131,0.086C86.931,14.576,86.951,14.514,86.995,14.473z M87.254,16.145h-0.358l-0.009-1.31
			c0.015-0.035,0.041-0.063,0.078-0.077c0.009-0.063,0.054-0.115,0.113-0.138c0.058,0.023,0.098,0.076,0.107,0.138
			c0.034,0.014,0.062,0.042,0.074,0.079L87.254,16.145z M87.269,14.664c0.009-0.038,0.007-0.077-0.005-0.114
			c0.044,0.025,0.094,0.039,0.145,0.038c-0.042,0.033-0.074,0.079-0.089,0.13L87.269,14.664z M87.687,16.143h-0.357l-0.01-1.308
			c0.014-0.036,0.041-0.064,0.077-0.078c0.01-0.063,0.054-0.115,0.113-0.138c0.059,0.023,0.099,0.076,0.106,0.138
			c0.035,0.014,0.062,0.042,0.074,0.079L87.687,16.143z M87.749,14.664L87.7,14.718c-0.016-0.052-0.047-0.098-0.089-0.13
			c0.051,0.001,0.101-0.011,0.144-0.037C87.744,14.588,87.742,14.626,87.749,14.664z M88.124,16.145h-0.357l-0.003-1.307
			c0.011-0.037,0.038-0.065,0.073-0.079c0.007-0.062,0.048-0.115,0.106-0.138c0.06,0.022,0.104,0.075,0.114,0.138
			c0.035,0.014,0.062,0.042,0.076,0.077L88.124,16.145z"/>
	</g>
</g>
</svg>
