<?xml version="1.0" encoding="UTF-8" standalone="no"?>
<!-- Created with Inkscape (http://www.inkscape.org/) -->

<svg
   xmlns:dc="http://purl.org/dc/elements/1.1/"
   xmlns:cc="http://creativecommons.org/ns#"
   xmlns:rdf="http://www.w3.org/1999/02/22-rdf-syntax-ns#"
   xmlns:svg="http://www.w3.org/2000/svg"
   xmlns="http://www.w3.org/2000/svg"
   xmlns:sodipodi="http://sodipodi.sourceforge.net/DTD/sodipodi-0.dtd"
   xmlns:inkscape="http://www.inkscape.org/namespaces/inkscape"
   version="1.1"
   id="svg2733"
   xml:space="preserve"
   width="305"
   height="197.32001"
   viewBox="0 0 305.00001 197.32001"
   sodipodi:docname="WrexhamLogoWel.svg"
   inkscape:version="0.92.2 5c3e80d, 2017-08-06"><metadata
     id="metadata2739"><rdf:RDF><cc:Work
         rdf:about=""><dc:format>image/svg+xml</dc:format><dc:type
           rdf:resource="http://purl.org/dc/dcmitype/StillImage" /><dc:title></dc:title></cc:Work></rdf:RDF></metadata><defs
     id="defs2737"><clipPath
       clipPathUnits="userSpaceOnUse"
       id="clipPath2749"><path
         d="M 0,0 H 983.622 V 737.008 H 0 Z"
         id="path2747"
         inkscape:connector-curvature="0" /></clipPath><clipPath
       clipPathUnits="userSpaceOnUse"
       id="clipPath2757"><path
         d="M 628.291,675.646 H 922.26 V 61.3622 H 628.291 Z"
         id="path2755"
         inkscape:connector-curvature="0" /></clipPath><clipPath
       clipPathUnits="userSpaceOnUse"
       id="clipPath2761"><path
         d="M 629.292,62.483 H 921.26 V 674.645 H 629.292 Z"
         id="path2759"
         inkscape:connector-curvature="0" /></clipPath><clipPath
       clipPathUnits="userSpaceOnUse"
       id="clipPath2783"><path
         d="M 628.291,675.646 H 922.26 V 61.3622 H 628.291 Z"
         id="path2781"
         inkscape:connector-curvature="0" /></clipPath><linearGradient
       x1="0"
       y1="0"
       x2="1"
       y2="0"
       gradientUnits="userSpaceOnUse"
       gradientTransform="matrix(0,612.28345,612.28345,0,629.29135,62.362213)"
       spreadMethod="pad"
       id="linearGradient2795"><stop
         style="stop-opacity:1;stop-color:#231f20"
         offset="0"
         id="stop2789" /><stop
         style="stop-opacity:1;stop-color:#231f20"
         offset="0.58496236"
         id="stop2791" /><stop
         style="stop-opacity:1;stop-color:#ffffff"
         offset="1"
         id="stop2793" /></linearGradient><clipPath
       clipPathUnits="userSpaceOnUse"
       id="clipPath2817"><path
         d="M 628.291,146.984 H 922.26 V 61.3622 H 628.291 Z"
         id="path2815"
         inkscape:connector-curvature="0" /></clipPath><linearGradient
       x1="0"
       y1="0"
       x2="1"
       y2="0"
       gradientUnits="userSpaceOnUse"
       gradientTransform="matrix(0,83.622101,83.622101,0,629.29135,62.362213)"
       spreadMethod="pad"
       id="linearGradient2829"><stop
         style="stop-opacity:1;stop-color:#231f20"
         offset="0"
         id="stop2823" /><stop
         style="stop-opacity:1;stop-color:#231f20"
         offset="0.7"
         id="stop2825" /><stop
         style="stop-opacity:1;stop-color:#ffffff"
         offset="1"
         id="stop2827" /></linearGradient><clipPath
       clipPathUnits="userSpaceOnUse"
       id="clipPath2851"><path
         d="m 643.604,86.193 h 254.84 v 564.622 h -254.84 z"
         id="path2849"
         inkscape:connector-curvature="0" /></clipPath><clipPath
       clipPathUnits="userSpaceOnUse"
       id="clipPath3003"><path
         d="m 730.138,589.606 h 81.772 v 62.362 h -81.772 z"
         id="path3001"
         inkscape:connector-curvature="0" /></clipPath><clipPath
       clipPathUnits="userSpaceOnUse"
       id="clipPath3215"><path
         d="M 0,0 H 983.622 V 737.008 H 0 Z"
         id="path3213"
         inkscape:connector-curvature="0" /></clipPath><clipPath
       clipPathUnits="userSpaceOnUse"
       id="clipPath3227"><path
         d="m 85.039,514.489 c 0,-8.612 6.981,-15.591 15.591,-15.591 v 0 c 8.61,0 15.591,6.979 15.591,15.591 v 0 c 0,8.61 -6.981,15.589 -15.591,15.589 v 0 c -8.61,0 -15.591,-6.979 -15.591,-15.589"
         id="path3225"
         inkscape:connector-curvature="0" /></clipPath><clipPath
       clipPathUnits="userSpaceOnUse"
       id="clipPath3319"><path
         d="M 0,0 H 983.622 V 737.008 H 0 Z"
         id="path3317"
         inkscape:connector-curvature="0" /></clipPath><clipPath
       clipPathUnits="userSpaceOnUse"
       id="clipPath3335"><path
         d="m 85.039,384.095 c 0,-8.611 6.981,-15.591 15.591,-15.591 v 0 c 8.61,0 15.591,6.98 15.591,15.591 v 0 c 0,8.61 -6.981,15.59 -15.591,15.59 v 0 c -8.61,0 -15.591,-6.98 -15.591,-15.59"
         id="path3333"
         inkscape:connector-curvature="0" /></clipPath><clipPath
       clipPathUnits="userSpaceOnUse"
       id="clipPath3351"><path
         d="M 0,0 H 983.622 V 737.008 H 0 Z"
         id="path3349"
         inkscape:connector-curvature="0" /></clipPath><clipPath
       clipPathUnits="userSpaceOnUse"
       id="clipPath3363"><path
         d="m 85.039,276.378 c 0,-8.61 6.981,-15.59 15.591,-15.59 v 0 c 8.61,0 15.591,6.98 15.591,15.59 v 0 c 0,8.611 -6.981,15.59 -15.591,15.59 v 0 c -8.61,0 -15.591,-6.979 -15.591,-15.59"
         id="path3361"
         inkscape:connector-curvature="0" /></clipPath><clipPath
       clipPathUnits="userSpaceOnUse"
       id="clipPath3415"><path
         d="M 0,0 H 983.622 V 737.008 H 0 Z"
         id="path3413"
         inkscape:connector-curvature="0" /></clipPath><clipPath
       clipPathUnits="userSpaceOnUse"
       id="clipPath3427"><path
         d="m 85.039,168.662 c 0,-8.611 6.981,-15.591 15.591,-15.591 v 0 c 8.61,0 15.591,6.98 15.591,15.591 v 0 c 0,8.61 -6.981,15.59 -15.591,15.59 v 0 c -8.61,0 -15.591,-6.98 -15.591,-15.59"
         id="path3425"
         inkscape:connector-curvature="0" /></clipPath><clipPath
       clipPathUnits="userSpaceOnUse"
       id="clipPath3443"><path
         d="M 0,0 H 983.622 V 737.008 H 0 Z"
         id="path3441"
         inkscape:connector-curvature="0" /></clipPath><clipPath
       clipPathUnits="userSpaceOnUse"
       id="clipPath3455"><path
         d="m 360,622.205 c 0,-8.611 6.98,-15.591 15.591,-15.591 v 0 c 8.61,0 15.59,6.98 15.59,15.591 v 0 c 0,8.61 -6.98,15.59 -15.59,15.59 v 0 c -8.611,0 -15.591,-6.98 -15.591,-15.59"
         id="path3453"
         inkscape:connector-curvature="0" /></clipPath><clipPath
       clipPathUnits="userSpaceOnUse"
       id="clipPath3495"><path
         d="M 0,0 H 983.622 V 737.008 H 0 Z"
         id="path3493"
         inkscape:connector-curvature="0" /></clipPath><clipPath
       clipPathUnits="userSpaceOnUse"
       id="clipPath3511"><path
         d="m 360,518.032 c 0,-8.611 6.98,-15.591 15.591,-15.591 v 0 c 8.61,0 15.59,6.98 15.59,15.591 v 0 c 0,8.61 -6.98,15.59 -15.59,15.59 v 0 c -8.611,0 -15.591,-6.98 -15.591,-15.59"
         id="path3509"
         inkscape:connector-curvature="0" /></clipPath><clipPath
       clipPathUnits="userSpaceOnUse"
       id="clipPath3643"><path
         d="M 0,0 H 983.622 V 737.008 H 0 Z"
         id="path3641"
         inkscape:connector-curvature="0" /></clipPath><clipPath
       clipPathUnits="userSpaceOnUse"
       id="clipPath3659"><path
         d="m 360,435.118 c 0,-8.611 6.98,-15.59 15.591,-15.59 v 0 c 8.61,0 15.59,6.979 15.59,15.59 v 0 c 0,8.611 -6.98,15.59 -15.59,15.59 v 0 c -8.611,0 -15.591,-6.979 -15.591,-15.59"
         id="path3657"
         inkscape:connector-curvature="0" /></clipPath><clipPath
       clipPathUnits="userSpaceOnUse"
       id="clipPath3691"><path
         d="M 0,0 H 983.622 V 737.008 H 0 Z"
         id="path3689"
         inkscape:connector-curvature="0" /></clipPath><clipPath
       clipPathUnits="userSpaceOnUse"
       id="clipPath3703"><path
         d="M 344.827,323.495 H 630.291 V 191.047 H 344.827 Z"
         id="path3701"
         inkscape:connector-curvature="0" /></clipPath><clipPath
       clipPathUnits="userSpaceOnUse"
       id="clipPath3755"><path
         d="M 344.827,100.049 H 630.291 V 69.8661 H 344.827 Z"
         id="path3753"
         inkscape:connector-curvature="0" /></clipPath><clipPath
       clipPathUnits="userSpaceOnUse"
       id="clipPath3775"><path
         d="M 84.0394,647.158 H 348.55 V 89.7087 H 84.0394 Z"
         id="path3773"
         inkscape:connector-curvature="0" /></clipPath><clipPath
       clipPathUnits="userSpaceOnUse"
       id="clipPath3975"><path
         d="M 359,647.158 H 629.277 V 315.063 H 359 Z"
         id="path3973"
         inkscape:connector-curvature="0" /></clipPath><clipPath
       clipPathUnits="userSpaceOnUse"
       id="clipPath4103"><path
         d="m 85.039,622.205 c 0,-8.611 6.981,-15.591 15.591,-15.591 v 0 c 8.61,0 15.591,6.98 15.591,15.591 v 0 c 0,8.61 -6.981,15.59 -15.591,15.59 v 0 c -8.61,0 -15.591,-6.98 -15.591,-15.59"
         id="path4101"
         inkscape:connector-curvature="0" /></clipPath><clipPath
       clipPathUnits="userSpaceOnUse"
       id="clipPath4119"><path
         d="m 97.676,637.516 c -4.159,-1.983 -7.187,-8.088 -7.187,-15.311 v 0 c 0,-7.226 3.03,-13.331 7.19,-15.312 v 0 c 0.956,-0.183 1.942,-0.279 2.951,-0.279 v 0 c 0.972,0 1.924,0.089 2.847,0.26 v 0 c 4.182,1.96 7.232,8.082 7.232,15.331 v 0 c 0,7.247 -3.049,13.368 -7.229,15.33 v 0 c -0.924,0.171 -1.877,0.26 -2.85,0.26 v 0 c -1.01,0 -1.997,-0.096 -2.954,-0.279"
         id="path4117"
         inkscape:connector-curvature="0" /></clipPath><clipPath
       clipPathUnits="userSpaceOnUse"
       id="clipPath4131"><path
         d="m 85.039,622.205 c 0,-8.611 6.981,-15.591 15.591,-15.591 v 0 c 8.61,0 15.591,6.98 15.591,15.591 v 0 c 0,8.61 -6.981,15.59 -15.591,15.59 v 0 c -8.61,0 -15.591,-6.98 -15.591,-15.59"
         id="path4129"
         inkscape:connector-curvature="0" /></clipPath><clipPath
       clipPathUnits="userSpaceOnUse"
       id="clipPath4143"><path
         d="M 0,0 H 983.622 V 737.008 H 0 Z"
         id="path4141"
         inkscape:connector-curvature="0" /></clipPath><clipPath
       clipPathUnits="userSpaceOnUse"
       id="clipPath4151"><path
         d="m 675.063,418.402 h 89.874 v -2.709 h -89.874 z"
         id="path4149"
         inkscape:connector-curvature="0" /></clipPath><clipPath
       clipPathUnits="userSpaceOnUse"
       id="clipPath4167"><path
         d="m 702.701,502.024 h 55.858 v -2.709 h -55.858 z"
         id="path4165"
         inkscape:connector-curvature="0" /></clipPath><clipPath
       clipPathUnits="userSpaceOnUse"
       id="clipPath4183"><path
         d="m 710.496,449.583 h 36.016 v -2.709 h -36.016 z"
         id="path4181"
         inkscape:connector-curvature="0" /></clipPath><clipPath
       clipPathUnits="userSpaceOnUse"
       id="clipPath4199"><path
         d="m 675.063,531.079 h 92.709 v -2.709 h -92.709 z"
         id="path4197"
         inkscape:connector-curvature="0" /></clipPath></defs><sodipodi:namedview
     pagecolor="#ffffff"
     bordercolor="#666666"
     borderopacity="1"
     objecttolerance="10"
     gridtolerance="10"
     guidetolerance="10"
     inkscape:pageopacity="0"
     inkscape:pageshadow="2"
     inkscape:window-width="1579"
     inkscape:window-height="1037"
     id="namedview2735"
     showgrid="false"
     inkscape:zoom="1.0902505"
     inkscape:cx="129.88616"
     inkscape:cy="-61.475128"
     inkscape:window-x="254"
     inkscape:window-y="30"
     inkscape:window-maximized="0"
     inkscape:current-layer="g3005" /><g
     id="g2741"
     inkscape:groupmode="layer"
     inkscape:label="WC-A4-DL-Leaflet-v5-LoRes"
     transform="matrix(1.3333333,0,0,-1.3333333,-973.51745,996.83184)"><g
       id="g3005"
       transform="matrix(2.847774,0,0,2.8277714,886.33338,645.40562)"><path
         d="m 0,0 h -0.814 l -0.008,2.974 c 0.026,0.082 0.088,0.148 0.168,0.179 0.018,0.141 0.11,0.262 0.242,0.315 0.136,-0.051 0.235,-0.171 0.26,-0.314 C -0.073,3.122 -0.01,3.059 0.02,2.979 Z M -0.85,3.37 -0.964,3.247 C -0.999,3.365 -1.07,3.47 -1.167,3.546 -1.052,3.542 -0.937,3.572 -0.838,3.63 -0.864,3.546 -0.868,3.456 -0.85,3.37 M -0.995,0.005 h -0.814 l -0.02,2.979 c 0.03,0.08 0.093,0.143 0.173,0.174 0.024,0.144 0.123,0.263 0.259,0.315 0.132,-0.053 0.224,-0.174 0.241,-0.315 0.08,-0.032 0.143,-0.098 0.169,-0.18 z m -0.95,3.365 c 0.019,0.086 0.015,0.176 -0.012,0.26 0.1,-0.058 0.214,-0.088 0.329,-0.084 C -1.724,3.47 -1.795,3.365 -1.831,3.247 Z M -1.98,0 h -0.814 l -0.021,2.979 c 0.031,0.08 0.094,0.143 0.173,0.175 0.025,0.143 0.123,0.263 0.259,0.314 0.132,-0.053 0.225,-0.174 0.242,-0.315 0.08,-0.031 0.142,-0.097 0.169,-0.179 z m -0.589,3.806 c -0.006,0.163 0.061,0.321 0.183,0.43 0.097,-0.126 0.154,-0.278 0.165,-0.437 0.123,-0.079 0.176,-0.234 0.127,-0.373 -0.067,0.104 -0.17,0.177 -0.289,0.207 -0.118,-0.031 -0.223,-0.1 -0.298,-0.196 -0.033,0.135 0.01,0.275 0.112,0.369 M -1.878,4.88 -1.87,4.848 C -1.908,4.782 -1.905,4.701 -1.862,4.638 -2.024,4.571 -2.155,4.445 -2.228,4.286 l -0.08,0.098 c 0.106,0.195 0.253,0.364 0.43,0.496 m 0.125,4.046 c -0.012,0.252 0.102,0.493 0.305,0.643 0.223,-0.13 0.344,-0.383 0.305,-0.639 0.151,-0.096 0.26,-0.245 0.306,-0.418 C -1.032,8.387 -1.287,8.417 -1.448,8.583 -1.643,8.45 -1.892,8.424 -2.111,8.512 c 0.038,0.192 0.174,0.349 0.358,0.414 M -0.486,4.384 -0.567,4.286 c -0.073,0.159 -0.203,0.285 -0.365,0.352 0.042,0.063 0.045,0.144 0.008,0.21 L -0.917,4.88 C -0.739,4.748 -0.593,4.579 -0.486,4.384 M -1.189,3.716 -1.28,3.625 -1.397,3.675 -1.51,3.624 -1.637,3.713 c 0.092,-0.007 0.183,0.033 0.239,0.107 0.05,-0.065 0.127,-0.104 0.209,-0.104 M -1.397,4.161 C -1.4,4.118 -1.411,4.076 -1.43,4.037 -1.511,3.866 -1.715,3.795 -1.885,3.876 -2.056,3.957 -2.128,4.161 -2.047,4.331 -1.965,4.502 -1.762,4.574 -1.591,4.493 -1.633,4.52 -1.668,4.556 -1.695,4.598 -1.8,4.763 -1.751,4.981 -1.586,5.085 -1.422,5.19 -1.204,5.142 -1.099,4.977 -0.994,4.812 -1.043,4.594 -1.208,4.49 -1.165,4.511 -1.117,4.524 -1.069,4.526 -0.878,4.537 -0.714,4.39 -0.704,4.199 -0.694,4.007 -0.841,3.844 -1.032,3.834 -1.223,3.823 -1.387,3.97 -1.397,4.161 M -0.225,3.806 C -0.124,3.712 -0.081,3.572 -0.113,3.437 -0.189,3.533 -0.293,3.602 -0.412,3.633 -0.53,3.603 -0.634,3.53 -0.7,3.426 c -0.049,0.139 0.004,0.294 0.127,0.373 0.011,0.159 0.068,0.311 0.165,0.437 0.121,-0.109 0.188,-0.267 0.183,-0.43 M -25.347,0 h -0.815 l -0.007,2.974 c 0.026,0.082 0.088,0.148 0.168,0.179 0.018,0.141 0.11,0.262 0.242,0.315 0.136,-0.051 0.235,-0.171 0.259,-0.314 0.08,-0.032 0.143,-0.095 0.173,-0.175 z m -0.85,3.37 -0.114,-0.123 c -0.035,0.118 -0.106,0.223 -0.203,0.299 0.115,-0.004 0.229,0.026 0.329,0.084 -0.027,-0.084 -0.031,-0.174 -0.012,-0.26 m -0.136,-3.365 h -0.814 l -0.008,2.973 c 0.027,0.082 0.089,0.148 0.169,0.18 0.017,0.141 0.11,0.262 0.242,0.315 0.135,-0.052 0.234,-0.171 0.259,-0.315 0.079,-0.031 0.142,-0.094 0.173,-0.174 z m -0.959,3.365 c 0.019,0.086 0.015,0.176 -0.012,0.26 0.1,-0.058 0.214,-0.088 0.329,-0.084 -0.096,-0.076 -0.168,-0.181 -0.203,-0.299 z M -27.327,0 h -0.815 l -0.02,2.979 c 0.03,0.08 0.093,0.143 0.173,0.175 0.025,0.143 0.123,0.263 0.259,0.314 0.132,-0.053 0.224,-0.174 0.242,-0.315 0.08,-0.031 0.142,-0.097 0.168,-0.179 z m -0.589,3.806 c -0.006,0.163 0.061,0.321 0.182,0.43 0.097,-0.126 0.155,-0.278 0.165,-0.437 0.124,-0.079 0.176,-0.234 0.127,-0.373 -0.066,0.104 -0.169,0.177 -0.288,0.207 -0.118,-0.031 -0.223,-0.1 -0.299,-0.196 -0.032,0.135 0.011,0.275 0.113,0.369 m 0.691,1.074 0.007,-0.032 c -0.037,-0.066 -0.034,-0.147 0.008,-0.21 -0.162,-0.067 -0.292,-0.193 -0.365,-0.352 l -0.081,0.098 c 0.107,0.195 0.254,0.364 0.431,0.496 m 0.226,4.05 c -0.039,0.256 0.082,0.509 0.305,0.639 0.203,-0.15 0.318,-0.391 0.305,-0.643 0.184,-0.065 0.32,-0.222 0.359,-0.414 -0.22,-0.088 -0.469,-0.062 -0.664,0.071 -0.16,-0.166 -0.416,-0.196 -0.61,-0.071 0.045,0.173 0.154,0.322 0.305,0.418 m 1.085,-4.644 c -0.073,0.159 -0.203,0.285 -0.365,0.352 0.042,0.063 0.045,0.144 0.008,0.21 l 0.007,0.032 c 0.177,-0.132 0.324,-0.301 0.431,-0.496 z m -0.59,-0.573 -0.127,-0.089 -0.113,0.051 -0.118,-0.05 -0.09,0.091 c 0.082,0 0.159,0.039 0.208,0.104 0.057,-0.074 0.147,-0.114 0.24,-0.107 m -0.24,0.448 c -0.003,-0.048 -0.016,-0.095 -0.037,-0.138 -0.087,-0.171 -0.295,-0.239 -0.467,-0.153 -0.171,0.087 -0.239,0.296 -0.153,0.467 0.087,0.171 0.296,0.239 0.467,0.153 -0.042,0.026 -0.078,0.062 -0.106,0.103 -0.107,0.163 -0.062,0.382 0.101,0.49 0.163,0.107 0.382,0.062 0.489,-0.101 0.107,-0.163 0.062,-0.382 -0.101,-0.489 0.039,0.018 0.082,0.029 0.125,0.032 0.188,0.013 0.351,-0.13 0.364,-0.318 0.012,-0.189 -0.13,-0.351 -0.319,-0.364 -0.188,-0.013 -0.351,0.13 -0.363,0.318 m 1.172,-0.355 c 0.101,-0.094 0.144,-0.234 0.112,-0.369 -0.076,0.096 -0.181,0.165 -0.299,0.196 -0.119,-0.03 -0.222,-0.103 -0.288,-0.207 -0.049,0.139 0.003,0.294 0.127,0.373 0.011,0.159 0.068,0.311 0.165,0.437 0.121,-0.109 0.188,-0.267 0.183,-0.43 m 30.883,-6.172 -0.155,0.009 0.01,0.922 c 0.038,0.017 0.056,0.061 0.039,0.1 C 5.2,-1.322 5.191,-1.311 5.179,-1.303 L 5.147,-1.231 4.649,0.171 4.671,0.792 4.754,0.805 C 4.809,0.82 4.841,0.877 4.826,0.932 4.816,0.967 4.789,0.995 4.753,1.004 L 4.52,1.475 4.529,2.067 4.679,2.109 4.675,2.622 4.779,2.65 C 4.814,2.66 4.834,2.696 4.824,2.731 4.818,2.753 4.801,2.769 4.779,2.776 L 4.662,2.917 4.766,2.912 4.777,3.139 C 4.769,3.163 4.744,3.176 4.72,3.168 4.705,3.164 4.694,3.152 4.69,3.136 V 3.053 L 4.662,3.05 l -5.955,10.511 0.054,0.113 -0.106,-0.002 0.017,0.291 c -0.002,0.065 -0.057,0.116 -0.122,0.114 -0.062,-0.002 -0.112,-0.052 -0.114,-0.114 l -0.007,-0.307 -0.144,0.019 0.078,-0.135 -3.319,-5.842 -4.862,-0.054 -0.67,1.376 0.02,1.613 0.151,0.2 -0.614,1.347 -0.008,0.956 0.112,0.247 0.139,2.557 0.129,0.014 c 0.046,-0.035 0.113,-0.025 0.147,0.021 0.035,0.047 0.026,0.113 -0.021,0.148 -0.01,0.007 -0.021,0.013 -0.033,0.017 l -0.101,0.164 -0.014,1.172 0.158,0.143 c 0.046,0.047 0.046,0.122 -10e-4,0.168 -0.047,0.046 -0.122,0.046 -0.171,-0.004 l -0.079,-0.1 -0.1,0.065 0.007,-0.072 -1.151,-0.007 -0.487,1.311 h 0.349 c 0.06,0.014 0.098,0.074 0.084,0.134 -0.01,0.042 -0.042,0.074 -0.084,0.084 0.084,0.038 0.121,0.137 0.083,0.221 -0.017,0.037 -0.046,0.067 -0.083,0.084 h -0.16 v 0.108 0.211 h -0.269 v 0.859 h 0.436 c 0.071,0.034 0.1,0.12 0.066,0.19 -0.014,0.029 -0.037,0.052 -0.066,0.066 h -0.122 v 0.077 h 0.084 c 0.05,0.073 0.05,0.17 0,0.244 h -0.424 l -0.286,6.208 h 0.312 c 0.047,0.016 0.073,0.068 0.056,0.116 -0.009,0.027 -0.03,0.048 -0.056,0.057 h -0.054 v 0.045 h 0.045 c 0.05,0.009 0.083,0.057 0.074,0.107 -0.007,0.038 -0.036,0.067 -0.074,0.074 h -0.3 v 0.638 h 0.329 c 0.064,0.049 0.076,0.14 0.027,0.204 -0.008,0.009 -0.017,0.018 -0.027,0.026 h -0.041 v 0.037 h 0.041 c 0.046,0.024 0.063,0.081 0.038,0.126 -0.008,0.017 -0.022,0.03 -0.038,0.039 h -0.391 l -1.215,7.213 -1.214,-7.213 h -0.392 c -0.045,-0.025 -0.062,-0.081 -0.038,-0.126 0.009,-0.017 0.022,-0.03 0.038,-0.039 h 0.042 v -0.037 h -0.042 c -0.063,-0.049 -0.075,-0.14 -0.026,-0.204 0.007,-0.01 0.016,-0.019 0.026,-0.026 h 0.33 v -0.638 h -0.301 c -0.05,-0.009 -0.083,-0.057 -0.074,-0.107 0.007,-0.038 0.036,-0.067 0.074,-0.074 h 0.045 v -0.045 h -0.053 c -0.048,-0.017 -0.073,-0.069 -0.057,-0.116 0.01,-0.027 0.03,-0.048 0.057,-0.057 h 0.311 l -0.286,-6.208 h -0.423 c -0.051,-0.074 -0.051,-0.171 0,-0.244 h 0.083 v -0.077 h -0.122 c -0.071,-0.034 -0.1,-0.119 -0.066,-0.19 0.014,-0.029 0.037,-0.052 0.066,-0.066 h 0.436 v -0.859 h -0.269 v -0.211 -0.108 h -0.16 c -0.084,-0.039 -0.121,-0.138 -0.083,-0.222 0.017,-0.037 0.047,-0.066 0.083,-0.083 -0.06,-0.014 -0.097,-0.074 -0.083,-0.134 0.009,-0.042 0.042,-0.074 0.083,-0.084 h 0.349 l -0.487,-1.311 -1.151,0.007 0.007,0.072 -0.1,-0.065 -0.079,0.1 c -0.044,0.049 -0.119,0.052 -0.168,0.007 -0.048,-0.044 -0.051,-0.119 -0.003,-0.171 l 0.157,-0.143 -0.014,-1.172 -0.1,-0.164 c -0.056,-0.017 -0.088,-0.075 -0.072,-0.131 0.017,-0.056 0.075,-0.088 0.131,-0.072 0.012,0.004 0.023,0.009 0.034,0.017 l 0.128,-0.014 0.14,-2.557 0.111,-0.247 -0.008,-0.956 -0.614,-1.347 0.152,-0.2 0.02,-1.613 -0.67,-1.376 -4.863,0.054 -3.318,5.842 0.078,0.135 -0.144,-0.019 -0.007,0.307 c -0.002,0.065 -0.057,0.116 -0.122,0.114 -0.062,-0.002 -0.113,-0.052 -0.115,-0.114 l 0.017,-0.291 -0.106,0.002 0.054,-0.113 -5.954,-10.511 -0.029,0.003 v 0.083 c -0.006,0.024 -0.03,0.039 -0.054,0.033 -0.016,-0.004 -0.028,-0.015 -0.032,-0.03 l 0.01,-0.227 0.105,0.005 -0.118,-0.141 c -0.034,-0.01 -0.055,-0.046 -0.045,-0.081 0.006,-0.022 0.023,-0.039 0.045,-0.045 l 0.105,-0.028 -0.004,-0.513 0.149,-0.042 0.01,-0.592 -0.234,-0.471 c -0.055,-0.015 -0.087,-0.071 -0.073,-0.126 0.009,-0.036 0.037,-0.063 0.073,-0.073 l 0.082,-0.013 0.022,-0.621 -0.498,-1.402 -0.032,-0.072 c -0.034,-0.024 -0.042,-0.071 -0.018,-0.106 0.008,-0.011 0.019,-0.02 0.032,-0.026 l 0.009,-0.922 -0.155,-0.009 -0.136,-0.317 0.027,-0.05 0.009,-0.581 h 17.968 c 0,10e-4 0,0.005 0,0.005 l 0.001,0.025 10e-4,0.026 10e-4,0.026 0.001,0.026 10e-4,0.027 v 0.027 l 10e-4,0.027 0.001,0.027 v 0.028 l 10e-4,0.027 v 0.028 l 10e-4,0.028 0.001,0.027 v 0.027 l 10e-4,0.028 10e-4,0.027 0.001,0.026 v 0.009 l 10e-4,0.01 10e-4,0.01 v 0.011 l 10e-4,0.011 0.001,0.011 10e-4,0.011 v 0.011 l 10e-4,0.01 v 0.011 0.01 0.01 l -10e-4,0.01 c 0,0 -10e-4,0.009 -0.002,0.018 0,0 -0.002,0.008 -0.004,0.016 0,0 -0.003,0.006 -0.004,0.01 0,0 -0.003,0.004 -0.008,0.011 0,0 -0.003,0.003 -0.01,0.01 0,0 -0.003,0.004 -0.011,0.01 0,0 -0.004,0.004 -0.012,0.01 0,0 -0.004,0.003 -0.012,0.008 0,0 -0.004,0.003 -0.013,0.009 0,0 -0.004,0.003 -0.012,0.009 0,0 -0.004,0.003 -0.01,0.009 0,0 -0.004,0.003 -0.01,0.009 0,0 -0.003,0.004 -0.009,0.01 0,0 -0.003,0.004 -0.009,0.011 0,0 -0.003,0.004 -0.008,0.01 0,0 -0.006,0.008 -0.011,0.015 0,0 -0.006,0.007 -0.012,0.015 0,0 -0.006,0.007 -0.012,0.015 0,0 -0.006,0.008 -0.011,0.016 0,0 -0.006,0.008 -0.011,0.016 0,0 -0.005,0.009 -0.01,0.018 0,0 -0.004,0.009 -0.008,0.019 l -0.004,0.009 -0.004,0.01 -0.002,0.011 -0.003,0.013 -0.003,0.014 -0.002,0.014 -0.002,0.014 -0.002,0.016 -10e-4,0.015 -0.001,0.015 -10e-4,0.016 -10e-4,0.015 -0.001,0.017 v 0.016 0.016 0.016 0.017 l -10e-4,0.017 v 0.016 0.017 0.016 0.213 0.232 0.232 0.232 0.232 0.231 0.232 0.232 0.232 0.231 0.232 0.232 0.231 0.233 0.231 0.232 0.233 0.225 0.016 0.017 0.016 c 0,0 0,0.008 10e-4,0.016 0,0 0,0.008 0,0.015 0,0 0,0.008 0.001,0.016 0,0 0,0.008 10e-4,0.016 0,0 10e-4,0.008 0.002,0.015 l 0.002,0.011 0.003,0.021 0.003,0.021 0.003,0.021 0.003,0.022 0.003,0.021 0.004,0.022 0.003,0.022 0.003,0.023 0.003,0.022 0.003,0.022 0.003,0.022 0.003,0.022 0.003,0.022 0.003,0.021 0.004,0.022 0.003,0.021 0.003,0.02 c 0,0 0.002,0.016 0.003,0.023 0,0 10e-4,0.007 0.002,0.015 0,0 0.001,0.007 0.002,0.014 0,0 10e-4,0.008 0.002,0.014 0,0 10e-4,0.008 0.002,0.015 l 0.002,0.014 c 0,0 0.002,0.007 0.003,0.013 0,0 0.002,0.007 0.003,0.014 0,0 0.002,0.007 0.004,0.014 l 0.006,0.019 0.011,0.031 0.01,0.031 0.01,0.031 0.011,0.031 0.01,0.031 0.011,0.031 0.01,0.031 0.011,0.031 0.01,0.031 0.011,0.031 0.011,0.031 0.01,0.031 0.011,0.031 0.01,0.031 0.011,0.031 0.01,0.031 0.011,0.031 0.009,0.026 0.008,0.024 0.009,0.024 0.009,0.023 0.01,0.024 0.009,0.023 0.01,0.024 0.01,0.023 0.01,0.023 0.01,0.023 0.011,0.024 0.01,0.023 0.01,0.023 0.011,0.022 0.01,0.023 0.011,0.023 0.01,0.023 0.01,0.023 0.006,0.013 0.005,0.011 0.005,0.012 0.005,0.011 0.005,0.012 0.005,0.012 0.005,0.011 0.005,0.012 0.005,0.011 0.005,0.012 0.005,0.011 0.005,0.012 0.006,0.011 0.005,0.011 0.005,0.011 0.006,0.012 0.005,0.011 0.006,0.011 0.014,0.027 0.013,0.027 0.014,0.027 0.014,0.027 0.014,0.027 0.014,0.027 0.014,0.028 0.014,0.027 0.015,0.027 0.014,0.027 0.015,0.027 0.014,0.028 0.015,0.027 0.014,0.027 0.014,0.028 0.015,0.027 0.014,0.027 0.013,0.024 0.006,0.01 c 0,0 0.003,0.006 0.006,0.011 l 0.006,0.01 c 0,0 0.004,0.004 0.007,0.009 0,0 0.004,0.005 0.011,0.015 0,0 0.003,0.004 0.011,0.013 0,0 0.003,0.005 0.011,0.014 l 0.013,0.015 0.029,0.036 0.03,0.036 0.03,0.035 0.03,0.036 0.03,0.036 0.03,0.036 0.03,0.035 0.03,0.037 0.03,0.035 0.031,0.036 0.03,0.036 0.031,0.037 0.03,0.035 0.031,0.037 0.031,0.036 0.031,0.036 0.031,0.036 c 0,0 0.019,0.023 0.027,0.032 0,0 0.008,0.008 0.016,0.017 l 0.016,0.016 0.016,0.017 c 0,0 0.008,0.008 0.017,0.016 0,0 0.008,0.008 0.016,0.016 0,0 0.009,0.007 0.018,0.015 0,0 0.009,0.008 0.018,0.016 0,0 0.009,0.008 0.019,0.016 0,0 0.006,0.005 0.01,0.009 l 0.014,0.011 c 0,0 0.004,0.004 0.014,0.011 0,0 0.004,0.004 0.014,0.012 l 0.013,0.011 c 0,0 0.005,0.004 0.014,0.011 0,0 0.004,0.004 0.013,0.012 0,0 0.005,0.004 0.014,0.012 0,0 0.004,0.004 0.013,0.012 0,0 0.004,0.004 0.013,0.012 0,0 0.004,0.004 0.012,0.011 0,0 0.005,0.003 0.013,0.01 0,0 0.005,0.002 0.012,0.006 0,0 0.004,10e-4 0.013,0.004 0,0 0.005,0.002 0.01,0.003 0,0 0.005,0.001 0.009,0.002 0,0 0.005,0.002 0.01,0.003 0,0 0.005,0.001 0.014,0.002 0,0 0.003,10e-4 0.013,0.002 0,0 0.004,0 0.012,-0.003 0,0 0.004,-0.002 0.014,-0.008 0,0 0.005,-0.004 0.01,-0.008 0,0 0.005,-0.004 0.01,-0.009 0,0 0.006,-0.005 0.011,-0.01 l 0.01,-0.01 c 0,0 0.005,-0.004 0.01,-0.009 0,0 0.005,-0.004 0.013,-0.011 l 0.013,-0.011 0.014,-0.012 0.014,-0.012 0.014,-0.011 0.014,-0.012 0.013,-0.011 0.014,-0.012 0.014,-0.011 0.014,-0.012 0.013,-0.011 0.014,-0.011 0.014,-0.012 0.013,-0.011 0.014,-0.011 0.013,-0.011 0.013,-0.012 0.013,-0.011 0.016,-0.013 0.019,-0.017 0.018,-0.017 0.017,-0.017 0.018,-0.017 0.017,-0.017 0.016,-0.017 0.016,-0.017 0.016,-0.017 0.016,-0.018 0.016,-0.017 0.015,-0.017 0.015,-0.017 0.015,-0.017 0.016,-0.017 0.015,-0.017 0.015,-0.017 0.015,-0.017 0.016,-0.018 0.016,-0.018 0.016,-0.018 0.015,-0.019 0.015,-0.018 0.015,-0.019 0.014,-0.019 0.015,-0.02 0.014,-0.019 0.014,-0.019 0.014,-0.02 0.014,-0.019 0.013,-0.02 0.014,-0.019 0.013,-0.02 0.014,-0.019 0.014,-0.019 0.014,-0.019 0.008,-0.013 0.008,-0.01 0.007,-0.009 0.007,-0.01 0.007,-0.01 0.007,-0.01 0.007,-0.01 0.007,-0.009 0.007,-0.01 0.007,-0.01 0.006,-0.01 0.007,-0.01 0.006,-0.01 0.007,-0.01 0.006,-0.01 0.006,-0.011 0.006,-0.01 0.006,-0.011 0.006,-0.01 0.006,-0.011 0.006,-0.011 0.006,-0.01 0.006,-0.01 0.005,-0.011 0.006,-0.01 0.006,-0.011 0.006,-0.011 0.006,-0.01 0.006,-0.011 0.006,-0.01 0.006,-0.011 0.006,-0.011 0.006,-0.011 0.006,-0.01 0.006,-0.011 0.007,-0.012 0.012,-0.021 0.012,-0.022 0.012,-0.021 0.012,-0.022 0.013,-0.021 0.012,-0.022 0.012,-0.022 0.012,-0.021 0.012,-0.022 0.012,-0.022 0.012,-0.022 0.011,-0.022 0.011,-0.023 0.011,-0.022 0.01,-0.023 0.01,-0.023 0.009,-0.022 0.011,-0.027 0.013,-0.036 0.014,-0.036 0.013,-0.035 0.014,-0.036 0.014,-0.037 0.014,-0.036 0.014,-0.036 0.014,-0.036 0.014,-0.036 0.015,-0.036 0.014,-0.036 0.014,-0.037 0.014,-0.036 0.014,-0.036 0.014,-0.037 0.014,-0.036 0.013,-0.036 c 0,0 0.009,-0.024 0.012,-0.03 0,0 0.002,-0.006 0.005,-0.012 l 0.004,-0.013 c 0,0 0.002,-0.006 0.005,-0.012 0,0 0.002,-0.006 0.004,-0.012 l 0.004,-0.013 0.004,-0.012 c 0,0 0.002,-0.007 0.004,-0.013 l 0.002,-0.013 0.004,-0.023 0.006,-0.035 0.006,-0.035 0.005,-0.035 0.006,-0.035 0.006,-0.036 0.006,-0.035 0.006,-0.035 0.006,-0.036 0.006,-0.035 0.006,-0.036 0.006,-0.036 0.006,-0.036 0.006,-0.036 0.006,-0.036 0.006,-0.036 0.006,-0.036 0.006,-0.037 0.003,-0.02 0.002,-0.014 0.003,-0.015 0.003,-0.014 0.002,-0.015 0.002,-0.014 0.002,-0.015 0.003,-0.015 0.002,-0.015 0.002,-0.014 0.002,-0.015 0.002,-0.015 0.001,-0.015 0.002,-0.015 0.001,-0.015 10e-4,-0.016 10e-4,-0.015 0.001,-0.015 0.002,-0.044 0.001,-0.048 0.002,-0.048 0.002,-0.048 0.002,-0.049 0.002,-0.049 0.002,-0.049 10e-4,-0.049 0.002,-0.049 0.002,-0.049 0.002,-0.048 10e-4,-0.049 0.002,-0.049 10e-4,-0.048 0.002,-0.048 0.002,-0.048 0.001,-0.047 0.002,-0.046 0.001,-0.033 V 1.082 l 10e-4,-0.033 V 1.016 l 10e-4,-0.034 V 0.949 0.916 0.882 0.849 0.816 L -12.263,0.782 V 0.749 0.716 0.682 0.649 0.616 0.583 l 10e-4,-0.047 V 0.437 l 0.001,-0.1 v -0.099 -0.1 -0.099 -0.1 -0.099 -0.1 -0.099 -0.1 -0.099 -0.1 -0.099 l 10e-4,-0.1 10e-4,-0.1 0.001,-0.099 0.002,-0.1 0.002,-0.082 10e-4,-0.049 10e-4,-0.05 0.001,-0.05 v -0.049 l 10e-4,-0.05 v -0.05 -0.05 -0.049 -0.05 -0.05 -0.05 l -10e-4,-0.05 v -0.05 -0.05 -0.05 -0.05 -0.05 l -0.001,-0.033 v -0.017 l 0.001,-0.017 v -0.017 -0.018 -0.017 -0.017 -0.017 -0.017 -0.017 -0.017 -0.017 -0.016 -0.017 -0.016 -0.016 -0.016 -0.016 c 0,0 -0.002,-0.008 -0.005,-0.014 l -0.004,-0.012 c 0,0 -0.002,-0.007 -0.003,-0.012 0,0 -0.002,-0.007 -0.004,-0.013 0,0 -0.001,-0.005 -0.003,-0.012 0,0 -0.002,-0.005 -0.004,-0.011 0,0 -0.002,-0.005 -0.004,-0.011 0,0 -0.003,-0.005 -0.005,-0.01 0,0 -0.003,-0.005 -0.011,-0.013 0,0 -0.004,-0.005 -0.013,-0.013 l -0.01,-0.009 -0.011,-0.009 -0.011,-0.009 -0.012,-0.008 -0.011,-0.009 c 0,0 -0.006,-0.004 -0.011,-0.008 0,0 -0.005,-0.004 -0.01,-0.007 0,0 -0.005,-0.005 -0.011,-0.008 l -0.012,-0.008 c 0,0 -0.006,-0.003 -0.012,-0.006 0,0 -0.006,-0.004 -0.012,-0.007 0,0 -0.007,-0.003 -0.013,-0.006 l -0.012,-0.006 c 0,0 -0.007,-0.002 -0.013,-0.005 0,0 -0.006,-0.004 -0.012,-0.007 0,0 -0.006,-0.003 -0.011,-0.011 l 10e-4,-0.035 10e-4,-0.036 0.001,-0.037 0.002,-0.037 0.002,-0.037 0.002,-0.039 0.003,-0.038 0.002,-0.038 0.003,-0.038 0.002,-0.039 0.002,-0.038 0.003,-0.038 0.002,-0.038 10e-4,-0.037 0.002,-0.037 10e-4,-0.035 v -0.035 c 0,0 0,-0.026 0,-0.034 l -10e-4,-10e-4 H 5.411 l 0.009,0.581 0.027,0.05 z"
         style="fill:#b28f56;fill-opacity:1;fill-rule:nonzero;stroke:none"
         id="path3007"
         inkscape:connector-curvature="0" /></g><g
       id="g3009"
       transform="matrix(2.847774,0,0,2.8277714,739.1627,614.69263)"><path
         d="m 0,0 h -0.764 l -1.059,2.549 v -4.172 l 0.152,-0.458 h -1.498 l 0.152,0.458 v 6.33 l -0.152,0.467 h 1.346 L -0.382,1.891 1.06,5.174 H 2.406 L 2.253,4.707 v -6.33 L 2.406,-2.081 H 0.907 l 0.153,0.458 v 4.172 z"
         style="fill:#b28f56;fill-opacity:1;fill-rule:nonzero;stroke:none"
         id="path3011"
         inkscape:connector-curvature="0" /></g><g
       id="g3013"
       transform="matrix(2.847774,0,0,2.8277714,756.59193,610.10316)"><path
         d="m 0,0 0.134,-0.458 h -1.48 L -1.193,0 v 2.072 l -1.48,4.191 -0.353,0.534 h 1.785 L -1.413,6.511 -0.602,3.848 0.21,6.511 0.038,6.797 H 1.823 L 1.47,6.263 0,2.072 Z"
         style="fill:#b28f56;fill-opacity:1;fill-rule:nonzero;stroke:none"
         id="path3015"
         inkscape:connector-curvature="0" /></g><g
       id="g3017"
       transform="matrix(2.847774,0,0,2.8277714,768.01235,608.80776)"><path
         d="m 0,0 h -1.499 l 0.153,0.458 v 6.33 l -0.153,0.467 h 1.346 L 1.604,2.835 V 6.788 L 1.451,7.255 H 2.969 L 2.816,6.788 V 0.458 L 2.969,0 H 1.604 L -0.153,4.411 V 0.458 Z"
         style="fill:#b28f56;fill-opacity:1;fill-rule:nonzero;stroke:none"
         id="path3019"
         inkscape:connector-curvature="0" /></g><g
       id="g3021"
       transform="matrix(2.847774,0,0,2.8277714,795.69072,610.05)"><path
         d="M 0,0 0.115,-0.439 H -1.537 L -1.422,0 -2.253,4.182 -3.055,0 -2.941,-0.439 H -4.602 L -4.487,0 -5.785,6.11 -6.062,6.816 h 1.499 l -0.086,-0.277 0.868,-4.391 0.869,4.267 -0.105,0.401 h 1.518 L -1.604,6.415 -0.726,2.148 0.143,6.539 0.038,6.816 H 1.556 L 1.27,6.119 Z"
         style="fill:#b28f56;fill-opacity:1;fill-rule:nonzero;stroke:none"
         id="path3023"
         inkscape:connector-curvature="0" /></g><g
       id="g3025"
       transform="matrix(2.847774,0,0,2.8277714,802.08284,608.80776)"><path
         d="M 0,0 0.152,0.468 V 6.797 L 0,7.255 H 3.628 L 3.847,5.919 3.351,6.062 H 1.489 L 1.346,5.919 V 4.42 L 1.489,4.277 H 2.1 L 2.568,4.43 V 2.912 L 2.1,3.065 H 1.489 L 1.346,2.931 V 1.365 L 1.489,1.222 H 3.351 L 3.847,1.365 3.628,0 Z"
         style="fill:#b28f56;fill-opacity:1;fill-rule:nonzero;stroke:none"
         id="path3027"
         inkscape:connector-curvature="0" /></g><g
       id="g3029"
       transform="matrix(2.847774,0,0,2.8277714,819.42863,608.80776)"><path
         d="m 0,0 h -1.498 l 0.152,0.458 v 6.33 l -0.152,0.467 h 1.346 L 1.604,2.835 V 6.788 L 1.451,7.255 H 2.969 L 2.816,6.788 V 0.458 L 2.969,0 H 1.604 L -0.152,4.411 V 0.458 Z"
         style="fill:#b28f56;fill-opacity:1;fill-rule:nonzero;stroke:none"
         id="path3031"
         inkscape:connector-curvature="0" /></g><g
       id="g3033"
       transform="matrix(2.847774,0,0,2.8277714,842.29511,625.49132)"><path
         d="M 0,0 -0.515,0.134 H -1.422 L -1.556,0 V -5.442 L -1.403,-5.9 h -1.518 l 0.153,0.458 V 0 L -2.912,0.134 H -3.838 L -4.334,0 -4.115,1.356 h 3.886 z"
         style="fill:#b28f56;fill-opacity:1;fill-rule:nonzero;stroke:none"
         id="path3035"
         inkscape:connector-curvature="0" /></g><g
       id="g3037"
       transform="matrix(2.847774,0,0,2.8277714,867.99001,610.05)"><path
         d="M 0,0 0.115,-0.439 H -1.537 L -1.422,0 -2.253,4.182 -3.055,0 -2.94,-0.439 H -4.602 L -4.487,0 -5.785,6.11 -6.062,6.816 h 1.499 l -0.086,-0.277 0.868,-4.391 0.869,4.267 -0.105,0.401 h 1.518 L -1.604,6.415 -0.726,2.148 0.143,6.539 0.038,6.816 H 1.556 L 1.27,6.119 Z"
         style="fill:#b28f56;fill-opacity:1;fill-rule:nonzero;stroke:none"
         id="path3039"
         inkscape:connector-curvature="0" /></g><g
       id="g3041"
       transform="matrix(2.847774,0,0,2.8277714,881.28769,619.98452)"><path
         d="M 0,0 0.143,0.134 V 1.948 L 0,2.081 H -0.935 L -1.079,1.948 V 0.134 L -0.935,0 Z m -2.425,-3.952 0.153,0.458 v 6.329 l -0.153,0.468 h 3.17 L 1.356,2.711 V -0.592 L 0.745,-1.203 1.27,-3.465 1.461,-3.952 h -1.499 l 0.105,0.448 -0.516,2.186 -0.095,0.115 h -0.391 l -0.144,-0.143 v -2.148 l 0.153,-0.458 z"
         style="fill:#b28f56;fill-opacity:1;fill-rule:nonzero;stroke:none"
         id="path3043"
         inkscape:connector-curvature="0" /></g><g
       id="g3045"
       transform="matrix(2.847774,0,0,2.8277714,888.16791,608.80776)"><path
         d="M 0,0 0.153,0.468 V 6.797 L 0,7.255 H 3.628 L 3.847,5.919 3.351,6.062 H 1.489 L 1.346,5.919 V 4.42 L 1.489,4.277 H 2.1 L 2.568,4.43 V 2.912 L 2.1,3.065 H 1.489 L 1.346,2.931 V 1.365 L 1.489,1.222 H 3.351 L 3.847,1.365 3.628,0 Z"
         style="fill:#b28f56;fill-opacity:1;fill-rule:nonzero;stroke:none"
         id="path3047"
         inkscape:connector-curvature="0" /></g><g
       id="g3049"
       transform="matrix(2.847774,0,0,2.8277714,901.46303,610.50838)"><path
         d="M 0,0 V 6.062 L 0.611,6.654 H 3.026 L 3.628,6.062 V 4.84 L 3.781,4.382 H 2.263 L 2.425,4.84 V 5.318 L 2.292,5.461 H 1.346 L 1.203,5.318 V 0.764 L 1.346,0.621 H 2.292 L 2.425,0.764 V 1.232 L 2.263,1.69 H 3.781 L 3.628,1.232 V 0 L 3.026,-0.602 H 0.611 Z"
         style="fill:#b28f56;fill-opacity:1;fill-rule:nonzero;stroke:none"
         id="path3051"
         inkscape:connector-curvature="0" /></g><g
       id="g3053"
       transform="matrix(2.847774,0,0,2.8277714,926.04217,622.84594)"><path
         d="m 0,0 h -1.518 l 0.143,0.458 V 0.935 L -1.518,1.069 H -2.444 L -2.587,0.935 v -1.527 l 0.143,-0.143 h 1.68 l 0.602,-0.601 v -3.027 l -0.602,-0.601 h -2.415 l -0.63,0.601 v 1.222 l -0.134,0.458 h 1.508 l -0.152,-0.458 v -0.477 l 0.143,-0.134 h 0.926 l 0.143,0.134 v 1.527 l -0.143,0.143 h -1.661 l -0.63,0.612 v 3.035 l 0.63,0.592 h 2.415 L -0.162,1.699 V 0.458 Z"
         style="fill:#b28f56;fill-opacity:1;fill-rule:nonzero;stroke:none"
         id="path3055"
         inkscape:connector-curvature="0" /></g><g
       id="g3057"
       transform="matrix(2.847774,0,0,2.8277714,933.16644,616.60929)"><path
         d="M 0,0 H 0.707 L 0.821,0.105 0.353,2.425 -0.115,0.105 Z M 2.769,-2.759 H 1.251 l 0.105,0.287 -0.268,1.107 -0.143,0.143 h -1.193 l -0.143,-0.143 -0.268,-1.107 0.105,-0.287 h -1.518 l 0.239,0.487 1.489,6.349 -0.133,0.42 H 1.174 L 1.041,4.077 2.53,-2.272 Z"
         style="fill:#b28f56;fill-opacity:1;fill-rule:nonzero;stroke:none"
         id="path3059"
         inkscape:connector-curvature="0" /></g><g
       id="g3061"
       transform="matrix(2.847774,0,0,2.8277714,952.03636,614.69263)"><path
         d="m 0,0 h -0.764 l -1.059,2.549 v -4.172 l 0.152,-0.458 h -1.498 l 0.152,0.458 v 6.33 l -0.152,0.467 h 1.346 L -0.382,1.891 1.06,5.174 H 2.406 L 2.253,4.707 v -6.33 L 2.406,-2.081 H 0.907 l 0.153,0.458 v 4.172 z"
         style="fill:#b28f56;fill-opacity:1;fill-rule:nonzero;stroke:none"
         id="path3063"
         inkscape:connector-curvature="0" /></g><g
       id="g3125"
       transform="matrix(2.847774,0,0,2.8277714,899.65669,601.76038)"><path
         d="m 0,0 h -37.51 l 0.159,-0.752 H -0.16 Z"
         style="fill:#b28f56;fill-opacity:1;fill-rule:nonzero;stroke:none"
         id="path3127"
         inkscape:connector-curvature="0" /></g></g></svg>