<?xml version="1.0" encoding="utf-8"?>
<!-- Generator: Adobe Illustrator 14.0.0, SVG Export Plug-In . SVG Version: 6.00 Build 43363)  -->
<!DOCTYPE svg PUBLIC "-//W3C//DTD SVG 1.1//EN" "http://www.w3.org/Graphics/SVG/1.1/DTD/svg11.dtd">
<svg version="1.1" id="Layer_1" xmlns="http://www.w3.org/2000/svg" xmlns:xlink="http://www.w3.org/1999/xlink" x="0px" y="0px"
	 width="306.886px" height="197.321px" viewBox="0 0 306.886 197.321" enable-background="new 0 0 306.886 197.321"
	 xml:space="preserve">
<g id="Layer_1_1_">
</g>
<g id="logo">
	<g>
		<path fill="#B28F56" d="M81.584,194.486h141.43v2.835H81.584V194.486L81.584,194.486z"/>
		<path fill="#B28F56" d="M225.398,145.212l-0.584-0.034l0.035-3.476c0.145-0.062,0.211-0.23,0.149-0.375
			c-0.021-0.049-0.056-0.091-0.099-0.122l-0.121-0.273l-1.877-5.285l0.082-2.342l0.312-0.046c0.207-0.057,0.329-0.271,0.273-0.478
			c-0.037-0.134-0.143-0.238-0.276-0.273l-0.88-1.776l0.036-2.233l0.563-0.158l-0.015-1.932l0.396-0.108
			c0.131-0.037,0.207-0.172,0.17-0.303c-0.023-0.083-0.088-0.147-0.17-0.17l-0.444-0.532l0.395,0.02l0.04-0.857
			c-0.027-0.089-0.123-0.139-0.212-0.11c-0.056,0.018-0.099,0.063-0.112,0.12v0.315l-0.108,0.01L200.5,85.161l0.204-0.425
			l-0.4,0.007l0.062-1.094c-0.008-0.246-0.214-0.438-0.46-0.43c-0.234,0.008-0.422,0.196-0.43,0.43l-0.027,1.157l-0.543-0.071
			l0.294,0.507l-12.512,22.026l-18.333,0.205l-2.526-5.188l0.075-6.083l0.572-0.751l-2.316-5.079l-0.03-3.606l0.421-0.932
			l0.525-9.639l0.486-0.054c0.176,0.132,0.425,0.096,0.557-0.08c0.131-0.176,0.096-0.425-0.081-0.557
			c-0.038-0.028-0.081-0.05-0.126-0.063l-0.378-0.62l-0.054-4.419l0.593-0.539c0.174-0.176,0.173-0.459-0.002-0.634
			c-0.176-0.174-0.459-0.174-0.646,0.014l-0.296,0.377l-0.377-0.243l0.027,0.27l-4.342,0.027l-1.833-4.944h1.313
			c0.227-0.052,0.368-0.278,0.316-0.504c-0.036-0.157-0.159-0.28-0.316-0.316c0.317-0.145,0.457-0.519,0.313-0.835
			c-0.063-0.139-0.174-0.25-0.313-0.313h-0.602v-0.408v-0.797h-1.016V58.32h1.644c0.267-0.129,0.378-0.451,0.249-0.718
			c-0.053-0.108-0.141-0.196-0.249-0.249h-0.459v-0.29h0.314c0.191-0.276,0.191-0.642,0-0.918h-1.596l-1.078-23.408h1.172
			c0.18-0.062,0.276-0.258,0.213-0.438c-0.035-0.1-0.113-0.179-0.213-0.213h-0.202v-0.171h0.171
			c0.188-0.034,0.313-0.214,0.279-0.403c-0.026-0.143-0.137-0.254-0.279-0.279h-1.133v-2.404h1.242
			c0.24-0.185,0.285-0.529,0.1-0.769c-0.029-0.038-0.062-0.071-0.1-0.1h-0.155v-0.14h0.155c0.171-0.091,0.236-0.304,0.145-0.476
			c-0.033-0.062-0.083-0.112-0.145-0.145h-1.475L152.321,0l-4.58,27.198h-1.475c-0.171,0.091-0.236,0.304-0.145,0.476
			c0.033,0.062,0.083,0.112,0.145,0.145h0.155v0.14h-0.155c-0.24,0.184-0.285,0.528-0.1,0.769c0.029,0.038,0.062,0.071,0.1,0.1
			h1.242v2.404h-1.133c-0.188,0.034-0.313,0.214-0.279,0.403c0.026,0.143,0.137,0.253,0.279,0.279h0.171v0.171h-0.202
			c-0.18,0.062-0.275,0.258-0.213,0.438c0.034,0.1,0.113,0.179,0.213,0.213h1.173l-1.079,23.408h-1.596
			c-0.191,0.276-0.191,0.642,0,0.918h0.314v0.29h-0.459c-0.267,0.129-0.378,0.451-0.249,0.718c0.052,0.108,0.14,0.196,0.249,0.249
			h1.644v3.237h-1.016v0.797v0.408h-0.602c-0.317,0.144-0.457,0.518-0.313,0.835c0.063,0.139,0.174,0.25,0.313,0.313
			c-0.227,0.052-0.368,0.278-0.316,0.504c0.036,0.157,0.159,0.28,0.316,0.316h1.313l-1.833,4.944l-4.342-0.027l0.027-0.27
			l-0.377,0.243l-0.296-0.377c-0.168-0.182-0.452-0.193-0.633-0.026c-0.182,0.168-0.193,0.452-0.014,0.646l0.593,0.539l-0.054,4.419
			l-0.377,0.62c-0.211,0.062-0.332,0.283-0.27,0.494c0.062,0.21,0.283,0.332,0.494,0.27c0.045-0.014,0.088-0.035,0.126-0.063
			l0.486,0.054l0.525,9.639l0.421,0.932l-0.03,3.606l-2.316,5.079l0.572,0.751l0.075,6.083l-2.526,5.188l-18.333-0.205
			l-12.512-22.026l0.293-0.507l-0.543,0.071l-0.027-1.157c-0.008-0.246-0.214-0.438-0.46-0.43c-0.234,0.008-0.422,0.196-0.43,0.43
			l0.062,1.094l-0.4-0.007l0.204,0.425l-22.45,39.632l-0.108-0.01v-0.315c-0.023-0.091-0.115-0.146-0.206-0.123
			c-0.057,0.014-0.103,0.057-0.12,0.113l0.04,0.857l0.395-0.02l-0.444,0.532c-0.131,0.037-0.207,0.172-0.17,0.303
			c0.023,0.083,0.087,0.147,0.17,0.17l0.395,0.108l-0.014,1.932l0.563,0.158l0.035,2.233l-0.879,1.776
			c-0.208,0.055-0.332,0.268-0.276,0.475c0.036,0.134,0.14,0.239,0.273,0.276l0.312,0.046l0.083,2.342l-1.877,5.285l-0.121,0.273
			c-0.129,0.091-0.161,0.269-0.07,0.398c0.03,0.043,0.073,0.078,0.122,0.099l0.034,3.476l-0.583,0.034l-0.514,1.198l0.103,0.188
			l0.034,2.191h67.745c0-0.007,0.001-0.02,0.001-0.02l0.004-0.096l0.004-0.097l0.003-0.099l0.003-0.1l0.003-0.101l0.002-0.102
			l0.002-0.103l0.002-0.103l0.002-0.104l0.002-0.104l0.002-0.104l0.002-0.104l0.002-0.104l0.003-0.104l0.003-0.104l0.003-0.103
			l0.003-0.095l0.002-0.036l0.002-0.038l0.002-0.039l0.003-0.04l0.003-0.041l0.003-0.041l0.003-0.041l0.002-0.041l0.001-0.041
			l0.001-0.04v-0.04l-0.001-0.038l-0.002-0.037c0,0-0.004-0.035-0.009-0.068c0,0-0.007-0.031-0.015-0.06
			c0,0-0.009-0.023-0.017-0.037c0,0-0.008-0.014-0.028-0.042c0,0-0.012-0.014-0.037-0.04c0,0-0.014-0.013-0.043-0.038
			c0,0-0.015-0.012-0.045-0.035c0,0-0.015-0.011-0.045-0.033c0,0-0.015-0.01-0.047-0.032c0,0-0.016-0.012-0.046-0.034
			c0,0-0.014-0.011-0.041-0.034c0,0-0.012-0.012-0.036-0.036c0,0-0.012-0.012-0.034-0.038c0,0-0.011-0.013-0.034-0.042
			c0,0-0.012-0.015-0.029-0.038c0,0-0.021-0.027-0.043-0.055c0,0-0.022-0.028-0.044-0.056c0,0-0.022-0.029-0.044-0.058
			c0,0-0.021-0.03-0.043-0.06c0,0-0.021-0.031-0.041-0.062c0,0-0.02-0.032-0.037-0.066c0,0-0.017-0.035-0.032-0.07l-0.014-0.037
			l-0.013-0.038l-0.01-0.04l-0.011-0.048l-0.009-0.053l-0.009-0.054l-0.007-0.055l-0.006-0.056l-0.005-0.057l-0.004-0.058
			l-0.003-0.059l-0.003-0.06l-0.002-0.061l-0.001-0.061l-0.001-0.062l-0.001-0.062v-0.062v-0.062v-0.062v-0.062v-0.062v-0.802
			v-0.875v-0.875v-0.875v-0.874v-0.874v-0.874V137.4v-0.874v-0.874v-0.874v-0.874v-0.874v-0.875v-0.875v-0.875v-0.875
			c0,0,0-0.818,0-0.85c0,0,0-0.031,0-0.062c0,0,0-0.031,0-0.061c0,0,0-0.031,0-0.061c0,0,0-0.03,0.001-0.06
			c0,0,0.001-0.03,0.002-0.06c0,0,0.001-0.029,0.003-0.059c0,0,0.002-0.029,0.005-0.059c0,0,0.003-0.03,0.007-0.059l0.006-0.041
			l0.012-0.078l0.012-0.08l0.012-0.081l0.012-0.081l0.012-0.082l0.012-0.083l0.012-0.083l0.012-0.083l0.012-0.083l0.012-0.083
			l0.012-0.083l0.012-0.083l0.012-0.082l0.012-0.082l0.012-0.081l0.012-0.08l0.012-0.078c0,0,0.009-0.058,0.013-0.086
			c0,0,0.004-0.027,0.007-0.055c0,0,0.004-0.027,0.007-0.054c0,0,0.003-0.027,0.007-0.054c0,0,0.004-0.027,0.008-0.053
			c0,0,0.004-0.026,0.009-0.053c0,0,0.005-0.026,0.01-0.052c0,0,0.006-0.026,0.012-0.051c0,0,0.007-0.025,0.014-0.051l0.024-0.075
			l0.038-0.117l0.039-0.117l0.039-0.117l0.039-0.117l0.04-0.117l0.04-0.117l0.04-0.117l0.04-0.117l0.04-0.117l0.04-0.117l0.04-0.117
			l0.04-0.117l0.04-0.117l0.04-0.116l0.04-0.117l0.039-0.116l0.04-0.116l0.033-0.098l0.032-0.091l0.033-0.09l0.035-0.089
			l0.035-0.089l0.036-0.088l0.037-0.088l0.038-0.088l0.039-0.087l0.039-0.087l0.039-0.087l0.039-0.087l0.04-0.087l0.039-0.086
			l0.039-0.086l0.039-0.086l0.039-0.086l0.038-0.086l0.021-0.049l0.019-0.043l0.019-0.043l0.019-0.043l0.019-0.043l0.019-0.043
			l0.019-0.043l0.019-0.043l0.019-0.043l0.019-0.043l0.02-0.043l0.02-0.043l0.02-0.042l0.02-0.043l0.02-0.042l0.02-0.042
			l0.021-0.042l0.021-0.043l0.051-0.102l0.052-0.102l0.052-0.102l0.053-0.102l0.053-0.102l0.053-0.102l0.054-0.103l0.054-0.103
			l0.054-0.104l0.054-0.103l0.054-0.103l0.055-0.103l0.055-0.103l0.054-0.103l0.055-0.103l0.055-0.103l0.055-0.103l0.046-0.088
			c0,0,0.011-0.02,0.022-0.04c0,0,0.012-0.02,0.023-0.039c0,0,0.012-0.019,0.025-0.038c0,0,0.012-0.019,0.025-0.037
			c0,0,0.013-0.018,0.04-0.053c0,0,0.014-0.018,0.042-0.052c0,0,0.014-0.018,0.042-0.052l0.048-0.057l0.112-0.134l0.112-0.135
			l0.112-0.135l0.113-0.134l0.113-0.135l0.113-0.135l0.114-0.135l0.114-0.135l0.114-0.136l0.114-0.136l0.115-0.136l0.115-0.136
			l0.115-0.136l0.116-0.136l0.116-0.136l0.117-0.137l0.117-0.137c0,0,0.073-0.085,0.102-0.119c0,0,0.03-0.032,0.059-0.064
			c0,0,0.03-0.032,0.06-0.063c0,0,0.03-0.031,0.061-0.061c0,0,0.031-0.03,0.062-0.061c0,0,0.032-0.03,0.064-0.059
			c0,0,0.033-0.03,0.066-0.06c0,0,0.034-0.029,0.068-0.059c0,0,0.035-0.03,0.07-0.06c0,0,0.023-0.02,0.041-0.034
			c0,0,0.017-0.014,0.051-0.042c0,0,0.017-0.015,0.052-0.043c0,0,0.017-0.014,0.052-0.042c0,0,0.017-0.014,0.051-0.042
			c0,0,0.017-0.014,0.051-0.042c0,0,0.017-0.014,0.051-0.043c0,0,0.017-0.015,0.05-0.046c0,0,0.017-0.016,0.049-0.047
			c0,0,0.017-0.015,0.049-0.045c0,0,0.017-0.014,0.049-0.042c0,0,0.016-0.013,0.049-0.035c0,0,0.017-0.01,0.042-0.023
			c0,0,0.015-0.006,0.049-0.018c0,0,0.018-0.005,0.037-0.01c0,0,0.019-0.005,0.038-0.009c0,0,0.019-0.004,0.037-0.008
			c0,0,0.018-0.003,0.05-0.009c0,0,0.015-0.002,0.049-0.006c0,0,0.014,0,0.046,0.01c0,0,0.017,0.008,0.053,0.032
			c0,0,0.019,0.014,0.038,0.029c0,0,0.02,0.017,0.039,0.034c0,0,0.02,0.018,0.04,0.036c0,0,0.02,0.019,0.04,0.037
			c0,0,0.019,0.018,0.038,0.036c0,0,0.019,0.017,0.046,0.041l0.052,0.044l0.052,0.044l0.052,0.043l0.052,0.043l0.052,0.043
			l0.052,0.043l0.052,0.043l0.052,0.043l0.052,0.043l0.052,0.043l0.051,0.043l0.051,0.042l0.051,0.042l0.051,0.042l0.05,0.042
			l0.05,0.042l0.049,0.042l0.06,0.051l0.07,0.063l0.069,0.063l0.066,0.064l0.065,0.064l0.063,0.064l0.062,0.064l0.062,0.065
			l0.06,0.065l0.059,0.065l0.059,0.065l0.058,0.064l0.057,0.065l0.058,0.064l0.057,0.064l0.057,0.064l0.058,0.064l0.058,0.063
			l0.06,0.065l0.06,0.068l0.059,0.069l0.058,0.07l0.057,0.071l0.056,0.071l0.055,0.072l0.054,0.073l0.053,0.073l0.053,0.073
			l0.052,0.073l0.052,0.074l0.052,0.073l0.051,0.074l0.052,0.073l0.051,0.073l0.052,0.073l0.052,0.073l0.033,0.045l0.027,0.037
			l0.027,0.037l0.027,0.037l0.027,0.037l0.026,0.037l0.026,0.037l0.026,0.037l0.026,0.037l0.025,0.037l0.025,0.037l0.025,0.038
			l0.024,0.038l0.024,0.038l0.024,0.039l0.023,0.039l0.022,0.04l0.022,0.04l0.022,0.04l0.022,0.04l0.022,0.04l0.022,0.04l0.022,0.04
			l0.022,0.04l0.022,0.04l0.022,0.04l0.022,0.04l0.022,0.04l0.022,0.04l0.022,0.04l0.022,0.04l0.022,0.041l0.023,0.041l0.022,0.041
			l0.023,0.041l0.024,0.045l0.045,0.081l0.046,0.081l0.046,0.081l0.046,0.081l0.046,0.081l0.046,0.082l0.046,0.082l0.046,0.082
			l0.045,0.083l0.044,0.083l0.044,0.083l0.042,0.083l0.042,0.084l0.041,0.084l0.039,0.085l0.038,0.086l0.035,0.087l0.038,0.1
			l0.051,0.134l0.051,0.135l0.052,0.135l0.052,0.136l0.052,0.136l0.053,0.136l0.053,0.136l0.053,0.136l0.053,0.137l0.053,0.137
			l0.053,0.137l0.053,0.137l0.053,0.137l0.053,0.137l0.053,0.136l0.052,0.136l0.052,0.136c0,0,0.034,0.09,0.043,0.114
			c0,0,0.009,0.023,0.018,0.047c0,0,0.009,0.023,0.018,0.046c0,0,0.009,0.023,0.018,0.046c0,0,0.008,0.023,0.017,0.046
			c0,0,0.008,0.023,0.016,0.047c0,0,0.007,0.023,0.014,0.047c0,0,0.006,0.024,0.012,0.048c0,0,0.005,0.024,0.01,0.049l0.015,0.085
			l0.022,0.132l0.022,0.133l0.022,0.133l0.022,0.133l0.022,0.133l0.022,0.133l0.022,0.134l0.022,0.134l0.022,0.134l0.022,0.134
			l0.022,0.135l0.022,0.135l0.022,0.136l0.022,0.136l0.022,0.136l0.023,0.137l0.022,0.138l0.013,0.077l0.009,0.055l0.009,0.055
			l0.009,0.055l0.009,0.055l0.009,0.055l0.009,0.055l0.008,0.056l0.008,0.055l0.008,0.056l0.007,0.056l0.007,0.057l0.006,0.057
			l0.005,0.057l0.005,0.057l0.004,0.058l0.004,0.058l0.003,0.058l0.006,0.165l0.007,0.18l0.007,0.181l0.007,0.183l0.007,0.183
			l0.007,0.184l0.007,0.184l0.006,0.185l0.007,0.185l0.006,0.185l0.007,0.184l0.006,0.184l0.006,0.183l0.006,0.182l0.006,0.181
			l0.006,0.18l0.006,0.179l0.005,0.174l0.003,0.125l0.003,0.125l0.002,0.125l0.001,0.125l0.001,0.125v0.125v0.125v0.125v0.125v0.126
			v0.125l-0.001,0.125v0.126v0.125v0.125v0.125l0.001,0.125l0.001,0.177l0.003,0.375l0.002,0.375l0.001,0.375v0.375v0.375v0.375
			l-0.001,0.375v0.375l-0.001,0.375v0.375v0.375l0.001,0.375l0.002,0.375l0.002,0.376l0.004,0.375l0.005,0.376l0.007,0.376
			l0.007,0.307l0.004,0.187l0.003,0.187l0.002,0.187l0.002,0.187l0.001,0.188v0.188v0.188v0.188v0.188v0.188v0.188v0.188
			l-0.001,0.188v0.189l-0.001,0.188v0.189v0.188v0.124v0.064v0.064v0.065v0.065v0.064v0.065v0.064v0.064v0.064v0.063v0.063v0.062
			v0.062v0.062v0.061v0.06v0.059c0,0-0.007,0.033-0.016,0.055c0,0-0.008,0.022-0.016,0.045c0,0-0.007,0.023-0.014,0.046
			c0,0-0.006,0.023-0.013,0.045c0,0-0.006,0.023-0.012,0.045c0,0-0.007,0.022-0.014,0.043c0,0-0.008,0.021-0.016,0.042
			c0,0-0.01,0.02-0.02,0.038c0,0-0.012,0.018-0.039,0.05c0,0-0.016,0.016-0.05,0.048c0,0-0.019,0.017-0.039,0.033
			c0,0-0.021,0.017-0.042,0.034c0,0-0.021,0.017-0.042,0.033c0,0-0.022,0.017-0.043,0.033c0,0-0.021,0.016-0.042,0.031
			c0,0-0.021,0.016-0.04,0.03c0,0-0.019,0.014-0.037,0.028c0,0-0.021,0.016-0.043,0.031c0,0-0.022,0.014-0.044,0.028
			c0,0-0.023,0.013-0.046,0.025c0,0-0.023,0.012-0.047,0.023c0,0-0.023,0.012-0.047,0.023c0,0-0.024,0.011-0.047,0.022
			c0,0-0.024,0.011-0.047,0.022c0,0-0.023,0.012-0.046,0.023c0,0-0.023,0.012-0.042,0.043l0.002,0.132l0.004,0.135l0.006,0.138
			l0.007,0.14l0.008,0.142l0.008,0.144l0.009,0.144l0.009,0.145l0.01,0.145l0.009,0.145l0.009,0.145l0.008,0.143l0.008,0.142
			l0.006,0.14l0.005,0.138l0.004,0.135l0.002,0.132c0,0,0,0.098-0.003,0.129l-0.001,0.004h67.387l0.034-2.191l0.104-0.188
			L225.398,145.212z M108.956,121.944c0.383,0.352,0.545,0.883,0.423,1.389c-0.285-0.363-0.68-0.622-1.126-0.738
			c-0.448,0.112-0.836,0.39-1.086,0.778c-0.186-0.523,0.012-1.105,0.479-1.406c0.039-0.599,0.256-1.172,0.622-1.647
			C108.724,120.734,108.976,121.328,108.956,121.944z M104.537,120.602c-0.01,0.181-0.057,0.359-0.139,0.521
			c-0.327,0.645-1.113,0.903-1.758,0.577c-0.645-0.326-0.903-1.113-0.577-1.758s1.113-0.903,1.758-0.577
			c-0.159-0.101-0.294-0.234-0.397-0.391c-0.404-0.614-0.234-1.44,0.38-1.844c0.614-0.404,1.439-0.234,1.844,0.38
			c0.404,0.614,0.234,1.439-0.38,1.844c0.147-0.07,0.307-0.112,0.47-0.123c0.71-0.047,1.324,0.49,1.372,1.2
			c0.047,0.71-0.49,1.325-1.201,1.372C105.198,121.85,104.584,121.312,104.537,120.602z M105.442,122.292l-0.479,0.336l-0.427-0.193
			l-0.442,0.189l-0.341-0.341c0.309-0.002,0.599-0.147,0.786-0.393C104.753,122.169,105.093,122.32,105.442,122.292z
			 M107.668,120.135c-0.275-0.601-0.767-1.076-1.376-1.33c0.16-0.236,0.171-0.543,0.029-0.791l0.027-0.123
			c0.668,0.5,1.223,1.138,1.625,1.87L107.668,120.135z M103.577,102.622c-0.146-0.962,0.31-1.917,1.15-2.408
			c0.766,0.563,1.198,1.474,1.15,2.423c0.694,0.247,1.207,0.839,1.352,1.561c-0.827,0.333-1.765,0.232-2.502-0.268
			c-0.605,0.626-1.568,0.738-2.3,0.268C102.598,103.547,103.009,102.984,103.577,102.622z M102.726,117.892l0.027,0.123
			c-0.142,0.248-0.13,0.554,0.029,0.791c-0.61,0.254-1.102,0.729-1.376,1.33l-0.306-0.374
			C101.503,119.029,102.057,118.392,102.726,117.892z M100.118,121.944c-0.02-0.616,0.232-1.209,0.688-1.624
			c0.367,0.475,0.583,1.049,0.623,1.647c0.466,0.301,0.664,0.883,0.479,1.406c-0.25-0.388-0.638-0.667-1.086-0.778
			c-0.446,0.116-0.841,0.375-1.126,0.738C99.573,122.827,99.735,122.295,100.118,121.944z M102.339,136.292h-3.07l-0.077-11.231
			c0.115-0.302,0.352-0.541,0.652-0.66c0.094-0.54,0.465-0.991,0.978-1.185c0.497,0.201,0.846,0.655,0.911,1.188
			c0.303,0.119,0.536,0.367,0.636,0.676L102.339,136.292z M102.473,123.586c0.07-0.325,0.055-0.663-0.045-0.98
			c0.375,0.22,0.806,0.33,1.24,0.315c-0.364,0.289-0.632,0.682-0.767,1.126L102.473,123.586z M106.089,136.275h-3.07l-0.029-11.212
			c0.1-0.31,0.333-0.558,0.635-0.676c0.066-0.532,0.415-0.986,0.911-1.188c0.513,0.194,0.884,0.645,0.978,1.185
			c0.3,0.119,0.537,0.358,0.652,0.659L106.089,136.275z M106.601,123.586l-0.428,0.462c-0.135-0.445-0.402-0.838-0.767-1.126
			c0.435,0.014,0.865-0.095,1.241-0.315C106.546,122.924,106.53,123.261,106.601,123.586z M109.805,136.292h-3.07l-0.029-11.212
			c0.1-0.309,0.333-0.557,0.636-0.676c0.065-0.532,0.414-0.987,0.911-1.188c0.513,0.194,0.884,0.645,0.978,1.185
			c0.3,0.119,0.537,0.358,0.652,0.66L109.805,136.292z M204.525,121.944c0.383,0.352,0.543,0.883,0.422,1.389
			c-0.284-0.363-0.68-0.622-1.127-0.738c-0.447,0.112-0.836,0.39-1.086,0.778c-0.186-0.523,0.013-1.105,0.479-1.406
			c0.039-0.599,0.257-1.172,0.623-1.647C204.293,120.734,204.544,121.328,204.525,121.944z M200.106,120.602
			c-0.011,0.163-0.053,0.322-0.123,0.47c-0.307,0.643-1.076,0.915-1.718,0.608c-0.642-0.307-0.915-1.076-0.608-1.718
			c0.307-0.642,1.076-0.915,1.718-0.608c-0.157-0.104-0.291-0.239-0.391-0.397c-0.395-0.62-0.212-1.443,0.409-1.838
			c0.62-0.395,1.443-0.211,1.837,0.409c0.396,0.62,0.211,1.443-0.408,1.837c0.162-0.082,0.339-0.129,0.521-0.139
			c0.722-0.039,1.339,0.515,1.376,1.236c0.038,0.721-0.515,1.337-1.236,1.376C200.762,121.877,200.145,121.324,200.106,120.602z
			 M200.889,122.284l-0.341,0.341l-0.442-0.189l-0.427,0.193l-0.479-0.336c0.35,0.028,0.689-0.123,0.903-0.402
			C200.29,122.137,200.581,122.282,200.889,122.284z M203.542,119.761l-0.306,0.374c-0.274-0.601-0.766-1.076-1.377-1.33
			c0.16-0.236,0.17-0.543,0.029-0.791l0.027-0.123C202.586,118.392,203.141,119.029,203.542,119.761z M198.766,102.638
			c-0.047-0.95,0.384-1.86,1.15-2.423c0.84,0.491,1.296,1.445,1.15,2.408c0.567,0.362,0.979,0.925,1.149,1.577
			c-0.731,0.471-1.694,0.358-2.3-0.268c-0.738,0.5-1.676,0.6-2.502,0.268C197.559,103.477,198.072,102.884,198.766,102.638z
			 M198.294,117.892l0.027,0.123c-0.142,0.248-0.13,0.554,0.029,0.791c-0.61,0.254-1.102,0.729-1.376,1.33l-0.305-0.374
			C197.072,119.029,197.626,118.392,198.294,117.892z M195.687,121.944c-0.02-0.616,0.232-1.209,0.688-1.624
			c0.366,0.475,0.583,1.049,0.622,1.647c0.466,0.301,0.665,0.883,0.479,1.406c-0.25-0.388-0.638-0.667-1.085-0.778
			c-0.446,0.116-0.842,0.375-1.126,0.738C195.142,122.827,195.304,122.295,195.687,121.944z M197.908,136.292h-3.07l-0.077-11.231
			c0.115-0.302,0.352-0.541,0.652-0.66c0.093-0.54,0.465-0.991,0.978-1.185c0.497,0.201,0.845,0.655,0.911,1.188
			c0.303,0.119,0.536,0.367,0.636,0.676L197.908,136.292z M198.042,123.586c0.071-0.325,0.055-0.663-0.045-0.98
			c0.375,0.22,0.805,0.33,1.24,0.315c-0.365,0.289-0.632,0.682-0.767,1.126L198.042,123.586z M201.624,136.275h-3.07l-0.078-11.231
			c0.116-0.301,0.352-0.541,0.652-0.659c0.093-0.54,0.465-0.991,0.978-1.185c0.498,0.201,0.845,0.656,0.912,1.188
			c0.301,0.119,0.535,0.367,0.635,0.676L201.624,136.275z M202.17,123.586l-0.429,0.462c-0.136-0.445-0.402-0.838-0.767-1.126
			c0.435,0.014,0.864-0.095,1.239-0.315C202.115,122.924,202.1,123.261,202.17,123.586z M205.374,136.292h-3.069l-0.029-11.212
			c0.1-0.309,0.332-0.557,0.635-0.676c0.064-0.532,0.415-0.987,0.91-1.188c0.513,0.194,0.885,0.645,0.979,1.185
			c0.301,0.119,0.537,0.358,0.652,0.66L205.374,136.292z"/>
		<g>
			<path fill="#B28F56" d="M23.857,183.435l0.432,1.656h-6.228l0.432-1.656l-3.131-15.766l-3.024,15.766l0.432,1.656H6.507
				l0.432-1.656l-4.895-23.037L1,157.735h5.651l-0.324,1.044l3.276,16.558l3.275-16.09l-0.396-1.512h5.723l-0.396,1.512l3.312,16.09
				l3.275-16.558L24,157.735h5.723l-1.08,2.628L23.857,183.435z"/>
			<path fill="#B28F56" d="M32.319,185.091l0.576-1.728v-23.865l-0.576-1.764H44.27l2.304,2.231v12.455l-2.304,2.303l1.979,8.531
				l0.72,1.836h-5.651l0.396-1.691l-1.944-8.243l-0.36-0.433h-1.476l-0.54,0.54v8.1l0.576,1.728H32.319z M41.462,170.189l0.54-0.504
				v-6.839l-0.54-0.504h-3.528l-0.54,0.504v6.839l0.54,0.504H41.462z"/>
			<path fill="#B28F56" d="M50.571,185.091l0.576-1.764v-23.865l-0.576-1.728H64.25l0.828,5.039l-1.872-0.54h-7.019l-0.54,0.54
				v5.651l0.54,0.54h2.304l1.764-0.576v5.724l-1.764-0.576h-2.304l-0.54,0.504v5.903l0.54,0.54h7.019l1.872-0.54l-0.828,5.147
				L50.571,185.091L50.571,185.091z"/>
			<path fill="#B28F56" d="M82.609,183.328l1.368,1.764h-6.516l0.648-1.116l-2.736-6.73l-2.736,6.73l0.648,1.116H66.77l1.368-1.764
				l4.823-11.95l-4.823-11.879l-1.368-1.764h6.479l-0.54,1.151l2.664,6.588l2.664-6.588l-0.54-1.151h6.479l-1.368,1.764
				l-4.823,11.879L82.609,183.328z"/>
			<path fill="#B28F56" d="M86.571,157.735h5.65l-0.575,1.764v8.963l0.54,0.54h3.491l0.54-0.54v-8.963l-0.54-1.764h5.724
				l-0.576,1.764v23.865l0.576,1.728h-5.724l0.54-1.728v-9.251l-0.54-0.54h-3.491l-0.54,0.54v9.251l0.575,1.728h-5.65l0.575-1.728
				v-23.865L86.571,157.735z"/>
			<path fill="#B28F56" d="M122.244,185.091h-5.724l0.396-1.08l-1.008-4.175l-0.54-0.54h-4.499l-0.54,0.54l-1.008,4.175l0.396,1.08
				h-5.724l0.899-1.836l5.615-23.937l-0.504-1.584h6.228l-0.504,1.584l5.615,23.937L122.244,185.091z M111.805,174.689h2.664
				l0.432-0.396l-1.764-8.747l-1.764,8.747L111.805,174.689z"/>
			<path fill="#B28F56" d="M136.789,177.245h-2.88l-3.995-9.611v15.73l0.575,1.728h-5.65l0.575-1.728v-23.865l-0.575-1.764h5.075
				l5.435,12.382l5.436-12.382h5.075l-0.575,1.764v23.865l0.575,1.728h-5.651l0.576-1.728v-15.73L136.789,177.245z"/>
			<path fill="#B28F56" d="M159.396,182.824v-22.857l2.304-2.231h9.107l2.268,2.231v4.607l0.576,1.728h-5.724l0.612-1.728v-1.8
				l-0.504-0.54h-3.563l-0.54,0.54v17.17l0.54,0.54h3.563l0.504-0.54v-1.764l-0.612-1.728h5.724l-0.576,1.728v4.644l-2.268,2.268
				H161.7L159.396,182.824z"/>
			<path fill="#B28F56" d="M177.218,185.091l0.575-1.764v-23.865l-0.575-1.728h13.678l0.828,5.039l-1.872-0.54h-7.019l-0.54,0.54
				v5.651l0.54,0.54h2.304l1.764-0.576v5.724l-1.764-0.576h-2.304l-0.54,0.504v5.903l0.54,0.54h7.019l1.872-0.54l-0.828,5.147
				L177.218,185.091L177.218,185.091z"/>
			<path fill="#B28F56" d="M206.482,177.245h-2.879l-3.996-9.611v15.73l0.575,1.728h-5.65l0.575-1.728v-23.865l-0.575-1.764h5.075
				l5.435,12.382l5.436-12.382h5.076l-0.576,1.764v23.865l0.576,1.728h-5.652l0.576-1.728v-15.73L206.482,177.245z"/>
			<path fill="#B28F56" d="M219.266,185.091l0.574-1.764v-23.865l-0.574-1.728h13.678l0.828,5.039l-1.873-0.54h-7.019l-0.54,0.54
				v5.651l0.54,0.54h2.304l1.765-0.576v5.724l-1.765-0.576h-2.304l-0.54,0.504v5.903l0.54,0.54h7.019l1.873-0.54l-0.828,5.147
				L219.266,185.091L219.266,185.091z"/>
			<path fill="#B28F56" d="M251.95,162.846l-1.943-0.504h-3.42l-0.504,0.504v20.518l0.576,1.728h-5.724l0.576-1.728v-20.518
				l-0.541-0.504h-3.49l-1.873,0.504l0.828-5.111h14.65L251.95,162.846z"/>
			<path fill="#B28F56" d="M254.688,185.091l0.576-1.764v-23.865l-0.576-1.728h13.679l0.827,5.039l-1.871-0.54h-7.02l-0.539,0.54
				v5.651l0.539,0.54h2.305l1.764-0.576v5.724l-1.764-0.576h-2.305l-0.539,0.504v5.903l0.539,0.54h7.02l1.871-0.54l-0.827,5.147
				L254.688,185.091L254.688,185.091z"/>
			<path fill="#B28F56" d="M272.005,185.091l0.575-1.728v-23.865l-0.575-1.764h11.95l2.304,2.231v12.455l-2.304,2.303l1.979,8.531
				l0.721,1.836h-5.651l0.396-1.691l-1.943-8.243l-0.359-0.433h-1.476l-0.54,0.54v8.1l0.574,1.728H272.005z M281.146,170.189
				l0.541-0.504v-6.839l-0.541-0.504h-3.526l-0.54,0.504v6.839l0.54,0.504H281.146z"/>
			<path fill="#B28F56" d="M300.01,183.364l0.504,1.728h-5.578l0.575-1.728v-7.812l-5.579-15.802l-1.332-2.016h6.731l-0.647,1.08
				l3.06,10.042l3.06-10.042l-0.646-1.08h6.729l-1.331,2.016l-5.544,15.802L300.01,183.364L300.01,183.364z"/>
		</g>
	</g>
</g>
</svg>
